<svg width="617" height="512" viewBox="0 0 617 512" fill="none" xmlns="http://www.w3.org/2000/svg">
<mask id="mask0_944_8404" style="mask-type:alpha" maskUnits="userSpaceOnUse" x="0" y="-109" width="720" height="720">
<circle cx="360" cy="251" r="360" fill="#C4C4C4"/>
</mask>
<g mask="url(#mask0_944_8404)">
<path fill-rule="evenodd" clip-rule="evenodd" d="M617 -109H0V8.41009C2.11074 7.56599 4.61678 6.85035 5.99365 6.84045C6.41927 6.83708 6.07186 8.17977 5.22156 9.82352C4.38038 11.4497 2.22136 13.1242 0 14.2976V19.1896C0.583589 18.893 1.27404 18.553 2.08167 18.1571C6.16425 16.1554 8.00271 15.7008 8.79846 16.4963C9.59421 17.2918 9.58612 18.1669 8.76892 19.6934C7.37606 22.2952 9.10977 26.228 11.2822 25.3946C12.0632 25.095 13.3587 25.1017 14.1611 25.4095C15.4215 25.893 15.4014 26.303 14.0128 28.4215C10.177 34.274 18.7766 32.6157 24.5984 26.3803C26.9653 23.8452 30.6327 23.0766 34.0699 24.3952C36.2898 25.2468 36.0818 25.944 32.4056 29.9737C28.0247 34.7759 25.7829 35.7581 19.2029 35.7581C16.0227 35.7581 12.2685 36.4468 10.5191 37.3512C8.09753 38.6031 6.9167 38.7072 5.00677 37.8372C1.44601 36.2153 0.20641 37.5653 2.76065 40.2833L4.94092 42.6035L0.590973 43.8376C0.403244 43.8909 0.205755 43.9438 0 43.9961V91.1147C0.0907529 90.8971 0.179222 90.6753 0.26532 90.4494C2.0806 85.6877 2.90779 84.7994 8.11798 82.0174C15.8074 77.9116 19.0051 73.8677 18.153 69.3269C17.5979 66.3692 17.8862 65.6751 20.4186 63.8724C22.0144 62.7364 24.1273 60.0174 25.1139 57.8303C27.3191 52.9415 30.8626 51.2468 36.8379 52.2234C42.1369 53.0895 48.4037 56.4529 49.1606 58.8371C49.4713 59.8158 49.2133 61.5735 48.5872 62.743C47.6389 64.5144 47.818 65.2624 49.66 67.2225L51.8712 69.5755L55.4819 67.7044C57.4678 66.6752 60.6508 64.6677 62.5552 63.2431L66.0177 60.653L66.8312 62.8513C67.2786 64.0605 67.4056 65.6726 67.1134 66.4338C66.8212 67.195 67.0485 68.6889 67.6184 69.7535C68.2596 70.9512 68.3094 72.3058 67.7492 73.3067C67.1175 74.4351 67.5396 76.149 69.1453 78.975C71.4456 83.0235 71.4457 83.0267 69.4257 84.4412C66.7677 86.3024 68.4731 88.2763 71.3905 86.7154C74.2879 85.1652 77.6047 85.3668 79.6502 87.2175C82.6739 89.9531 80.1594 93.2258 72.1336 97.0006C63.4039 101.107 59.5131 101.92 48.1186 102.021C39.7047 102.095 38.5905 102.363 30.4104 106.283C25.6092 108.584 21.681 110.862 21.681 111.344C21.681 113.402 23.1939 113.223 28.998 110.478C32.4179 108.861 36.826 107.569 38.9254 107.568C42.5115 107.567 42.6423 107.678 41.5225 109.77C40.8739 110.982 39.4749 112.676 38.4135 113.535C36.745 114.886 36.6473 115.456 37.6918 117.748C39.2582 121.185 43.3489 122.838 48.242 122.013L52.1092 121.361L49.1357 123.411C47.5004 124.539 44.8067 125.755 43.1499 126.113C41.493 126.47 38.0879 127.795 35.5829 129.057C33.0401 130.337 30.4855 131.015 29.7993 130.591C28.2204 129.616 29.8869 128.152 35.0165 126.01C39.5787 124.104 38.8494 122.079 33.9328 123.002C32.0177 123.361 25.8077 125.699 20.1329 128.198C11.2752 132.098 9.72998 133.128 9.21429 135.476C8.61469 138.205 6.64707 139.573 0 141.671V244.233C1.15023 244.345 1.70288 244.786 1.48361 245.451C1.31316 245.969 0.725572 246.405 0 246.695V282.105C2.5269 282.63 4.82907 282.862 6.02341 282.562C10.9042 281.338 24.0922 289.354 29.0473 296.557C31.4067 299.987 38.9443 303.439 42.2587 302.607C49.0765 300.897 58.4237 307.725 60.6096 316.014C61.2606 318.482 62.2421 320.782 62.7907 321.123C64.2462 322.03 62.066 325.612 57.2997 330.144C54.2546 333.04 53.5274 334.287 54.3841 335.143C55.2408 336 56.6489 335.249 60.0303 332.133C64.9482 327.602 66.5893 327.142 69.053 329.605C70.5518 331.103 70.5057 331.408 68.4515 333.594C67.2282 334.896 65.5198 335.989 64.6552 336.024C63.7441 336.061 64.1123 336.498 65.5312 337.065C67.4802 337.843 68.4969 337.623 70.5194 335.99C75.7868 331.735 77.0254 331.531 81.7043 334.144C84.7461 335.843 85.9644 337.136 85.811 338.504C85.3846 342.307 86.2817 343.15 88.9193 341.422C91.0156 340.049 92.4538 339.984 99.4676 340.944C106.928 341.965 107.905 342.372 111.485 345.95C114.142 348.607 117.131 350.354 120.886 351.445C125.928 352.911 126.476 353.357 127.39 356.752C128.716 361.674 127.163 367.136 122.962 372.324C121.167 374.54 118.967 377.794 118.073 379.554C117.18 381.315 115.279 383.924 113.849 385.353C111.43 387.772 111.295 388.377 111.898 394.121C113.077 405.342 107.586 426.276 102.291 430.753C100.567 432.21 99.0913 432.553 96.3573 432.129C94.1101 431.781 92.4466 432.006 92.0074 432.716C91.6163 433.349 89.4378 434.683 87.1662 435.682C84.8947 436.68 81.5128 438.798 79.651 440.388C76.4285 443.14 76.3206 443.444 77.405 446.729C78.6553 450.517 77.8133 455.001 75.1337 458.826C74.2673 460.062 73.5585 462.166 73.5585 463.5C73.5585 464.835 72.5176 467.316 71.2455 469.013C69.9733 470.711 67.5191 474.596 65.7919 477.648C61.5424 485.155 58.9872 486.456 52.8255 484.248C47.4782 482.332 44.6268 482.103 44.6268 483.59C44.6268 484.151 45.6928 485.095 46.9955 485.688C48.2983 486.281 50.3285 488.697 51.5071 491.056C53.2622 494.569 53.4479 495.789 52.5331 497.796C51.1161 500.906 45.6977 503.516 40.6613 503.516C36.2005 503.516 35.0939 504.607 36.6346 507.485C37.5857 509.261 36.9459 512.12 35.1068 514.311C34.9577 514.489 33.3957 513.889 31.6355 512.979C27.4337 510.807 25.9463 512.191 28.0698 516.296C28.9336 517.966 30.5758 519.629 31.7193 519.992C33.6847 520.615 33.706 520.754 32.1081 522.519C31.1775 523.547 30.6946 525.107 31.0338 525.991C31.3982 526.94 30.5854 528.991 29.043 531.012C26.5359 534.298 26.5001 534.526 28.1074 536.978C29.0264 538.381 30.46 539.789 31.2932 540.109C34.2976 541.262 34.7957 545.199 32.5047 549.689C30.2096 554.186 29.8574 558.695 31.634 560.835C33.2489 562.781 27.8146 566.571 25.3709 565.203C24.4167 564.67 22.8258 564.49 21.8357 564.804C20.5887 565.2 19.6259 564.61 18.7031 562.887C17.9704 561.518 16.6571 560.153 15.7847 559.853C13.7832 559.164 9.58753 552.369 7.2522 546.033C6.07275 542.833 4.4866 540.621 2.60364 539.55C1.1789 538.74 0.318174 538.118 0 537.608V611H617V245.26C616.676 245.498 616.354 245.676 616.057 245.771C615.005 246.104 613.382 247.631 612.45 249.163C611.519 250.694 608.744 253.494 606.284 255.383C602.917 257.97 601.867 259.417 602.034 261.236C603.012 271.872 601.511 280.77 597.848 286.055C594.275 291.209 594.024 291.353 591.001 289.976C589.337 289.218 588.312 287.738 587.888 285.478C587.541 283.625 585.531 278.405 583.423 273.879C570.667 246.488 568.781 241.262 569.867 236.316C570.602 232.973 568.84 227.93 567.137 228.501C566.455 228.73 565.885 229.552 565.87 230.328C565.785 234.88 560.669 235.579 556.673 231.584L554.025 228.937L556.303 228.095C558.866 227.147 558.631 224.591 556.024 225.059C555.097 225.226 552.977 224.216 551.312 222.815C549.647 221.414 547.9 220.268 547.431 220.268C546.961 220.268 546.29 219.366 545.94 218.263C545.021 215.366 539.728 212.846 537.076 214.042C534.689 215.118 513.034 214.893 509.409 213.755C508.104 213.345 505.688 211.469 504.042 209.585C501.068 206.182 501.022 206.168 496.56 207.371C492.332 208.51 491.718 208.402 486.023 205.529C481.102 203.045 479.628 201.706 478.109 198.338C476.171 194.041 471.866 190.93 469.249 191.934C468.425 192.25 467.462 193.821 467.11 195.425C466.603 197.729 467.12 199.225 469.566 202.551C471.269 204.866 473.124 208.476 473.689 210.574C474.903 215.078 477.299 216.418 479.285 213.703C480.484 212.064 480.807 212.007 481.619 213.292C482.137 214.112 482.416 215.232 482.24 215.78C481.685 217.504 487.442 220.341 490.128 219.667C491.485 219.327 494.386 217.015 496.573 214.531C500.02 210.616 501.224 210.352 500.634 213.639C500.238 215.852 501.979 218.445 504.861 219.935C509.313 222.235 515.515 227.361 515.515 228.739C515.515 229.374 514.349 230.982 512.924 232.312C511.499 233.642 509.448 236.456 508.366 238.565C505.738 243.69 498.119 251.186 495.539 251.186C492.558 251.186 488.122 253.703 486.356 256.397C485.52 257.673 483.321 259.474 481.469 260.398C471.987 265.13 460.57 269.928 457.357 270.53C453.922 271.175 453.644 271.019 451.824 267.431C450.77 265.353 449.574 261.185 449.167 258.168C448.637 254.244 447.609 251.75 445.557 249.406C443.978 247.604 442.687 245.697 442.687 245.168C442.687 244.64 440.887 242.352 438.686 240.086C435.946 237.263 434.175 234.199 433.065 230.36C432.174 227.278 430.36 223.41 429.034 221.764C419.879 210.398 417.167 206.39 415.803 202.204C413.994 196.657 412.464 195.761 411.758 199.836L411.257 202.728L407.882 198.468C402.681 191.904 402.026 194.888 406.908 202.901C409.218 206.693 412.901 213.387 415.092 217.775C417.283 222.163 420.123 227.142 421.404 228.84C422.722 230.588 423.732 233.319 423.732 235.139C423.732 238.897 424.854 241.243 429.259 246.698C431.031 248.892 432.782 252.096 433.149 253.817C433.621 256.024 435.547 258.333 439.687 261.652C445.978 266.697 450.055 271.963 451.067 276.351C451.447 278 452.887 279.692 454.713 280.636C457.495 282.074 458.474 282.035 467.266 280.13C472.511 278.994 478.068 277.411 479.613 276.612L482.424 275.159L483.091 279.107C483.697 282.694 483.045 284.422 475.943 298.04C468.306 312.681 467.949 313.165 460.356 319.158C456.082 322.531 451.61 326.661 450.417 328.335C449.225 330.009 445.409 334.531 441.939 338.383C431.81 349.626 430.433 359.513 437.151 372.766C438.857 376.132 439.524 378.68 439.119 380.291C438.783 381.631 438.999 385.015 439.598 387.811C440.543 392.213 440.436 393.391 438.801 396.593C436.442 401.213 434.566 402.874 427.972 406.177C425.091 407.621 422.734 409.228 422.734 409.749C422.734 410.27 420.714 412.97 418.245 415.749C415.776 418.529 413.755 421.254 413.755 421.806C413.755 422.358 414.681 424.624 415.812 426.841C419.204 433.486 416.925 438.302 408.795 441.669C405.368 443.088 404.243 445.985 405.091 451.208C405.535 453.944 405.252 454.855 403.702 455.685C402.631 456.258 400.695 458.39 399.4 460.424C395.31 466.844 383.554 478.205 378.214 480.898C373.758 483.145 372.618 483.344 369.343 482.44C366.457 481.643 364.127 481.769 359.287 482.985C354.527 484.18 352.964 484.68 351.791 484.208C351.032 483.903 350.436 483.192 349.243 482C347.131 479.888 346.778 478.807 347.25 475.898C347.694 473.161 347.271 471.551 345.373 468.759C344.025 466.776 342.923 464.666 342.923 464.069C342.923 463.473 341.159 460.621 339.002 457.732C335.67 453.267 334.985 451.482 334.435 445.833C333.466 435.864 330.282 425.075 326.002 417.254C323.898 413.409 321.877 408.417 321.511 406.161C320.732 401.359 322.682 394.213 327.135 385.554L330.097 379.794L328.433 374.785C327.501 371.982 327.047 368.666 327.4 367.258C327.814 365.61 327.369 363.646 326.112 361.571C325.056 359.828 323.488 355.933 322.627 352.916C321.478 348.886 319.875 346.266 316.588 343.042C310.265 336.84 309.443 334.399 311.405 327.651C315.4 313.913 311.085 305.901 300.542 307.481C296.437 308.097 296.28 308.02 295.7 305.121C295.255 302.897 294.049 301.588 291.021 300.044C287.086 298.037 285.402 298.029 280.57 299.997C279.472 300.444 274.983 301.992 270.593 303.438C263.993 305.612 262.011 305.892 259.138 305.059C256.416 304.27 254.124 304.474 248.554 306.002C242.798 307.581 240.712 307.75 237.602 306.892C231.113 305.1 219.965 295.055 218.379 289.57C217.152 285.326 209.52 275.434 206.923 274.722C205.273 274.269 205.07 273.918 206.08 273.266C207.097 272.61 206.92 272.279 205.332 271.864C202.811 271.204 202.56 269.145 204.998 269.123C206.49 269.11 206.527 268.967 205.248 268.141C204.305 267.532 204.2 267.169 204.965 267.159C205.757 267.149 205.455 265.919 204.096 263.616C202.182 260.373 202.142 259.945 203.604 258.33C208.068 253.399 209.046 242.783 205.653 236.095C204.033 232.902 205.074 228.491 208.531 223.906C209.832 222.179 212.373 217.979 214.177 214.571C217.333 208.609 224.368 200.321 226.272 200.321C228.379 200.321 235.177 193.015 235.177 190.75C235.177 185.638 238.235 180.541 243.22 177.343C245.898 175.624 249.037 172.686 250.195 170.813C252.563 166.983 252.898 166.858 255.656 168.78C256.739 169.534 259.428 170.453 261.633 170.823C264.995 171.387 266.603 170.981 271.609 168.304C280.223 163.699 285.547 162.548 295.403 163.163C301.904 163.569 304.83 163.309 307.981 162.049C312.622 160.193 316.634 161.291 315.548 164.121C315.221 164.971 315.421 166.228 315.99 166.915C316.708 167.779 316.702 169.017 315.972 170.936C315.055 173.347 315.259 174.064 317.53 176.435C318.967 177.934 321.54 179.44 323.248 179.781C331.266 181.385 333.546 182.423 335.201 185.225C336.414 187.277 338.004 188.331 340.633 188.824C342.677 189.208 345.646 190.191 347.23 191.01C349.92 192.401 350.268 192.35 352.511 190.243C354.019 188.827 354.703 187.328 354.35 186.213C354.04 185.237 354.276 183.524 354.874 182.406C356.418 179.523 360.8 179.806 367.643 183.231C375.098 186.962 389.235 189.624 394.247 188.241C396.658 187.575 398.975 187.566 401.086 188.215C407.979 190.333 411.509 188.675 412.451 182.878C412.763 180.952 413.297 179.377 413.637 179.377C414.281 179.377 414.619 176.482 414.712 170.151C414.743 168.094 415.229 166.411 415.793 166.411C416.465 166.411 416.432 165.689 415.697 164.316C414.47 162.024 411.982 162.077 406.027 164.52C403.203 165.678 402.417 165.629 399.888 164.135C396.607 162.198 393.241 161.907 392.27 163.477C391.548 164.645 386.447 163.827 383.68 162.099C381.693 160.858 379.836 157.165 379.836 154.453C379.836 153.412 378.825 151.85 377.591 150.981C375.68 149.635 375.569 149.254 376.843 148.421C377.666 147.882 379.359 147.681 380.605 147.975C382.194 148.348 383.656 147.723 385.501 145.878C387.237 144.142 389.349 143.184 391.715 143.058C393.686 142.954 396.542 142.05 398.06 141.049C401.357 138.877 408.841 139.481 414.648 142.387C422.479 146.305 429.434 146.075 432.233 141.804C433.689 139.582 433.697 139.115 432.315 137.007C431.473 135.722 427.428 132.762 423.327 130.43L415.87 126.188L417.267 123.487C418.035 122.001 418.413 120.534 418.105 120.227C417.798 119.92 417.915 119.077 418.366 118.355C418.817 117.633 419.274 116.463 419.382 115.754C419.611 114.244 418.002 114.661 410.068 118.168C405.462 120.205 404.778 120.829 405.799 122.059C406.469 122.865 407.971 123.545 409.139 123.569C410.776 123.603 410.388 124.074 407.442 125.628C403.865 127.514 403.466 127.539 401.14 126.015C399.152 124.713 398.892 124.107 399.834 122.971C400.77 121.845 400.63 121.411 399.153 120.856C398.13 120.472 396.813 119.516 396.224 118.732C393.367 114.925 384.301 124.941 381.664 134.819C380.426 139.456 380.468 139.697 382.797 141.454L385.215 143.277L380.78 144.192C378.34 144.695 375.052 144.753 373.473 144.322C370.559 143.526 366.866 144.726 366.866 146.468C366.866 146.98 366.187 147.138 365.357 146.82C364.527 146.502 363.209 146.771 362.429 147.418C361.218 148.423 361.355 149.246 363.361 153.018C365.534 157.104 365.602 157.663 364.246 160.38C362.548 163.784 360.968 163.53 358.568 159.47C356.896 156.639 356.907 156.574 359.12 156.26C361.913 155.863 362.093 154.086 359.384 153.653C353.203 152.665 349.906 149.408 349.906 144.291C349.906 140.297 346.203 135.895 341.713 134.55C339.379 133.851 336.842 132.384 336.075 131.289C335.308 130.194 333.063 128.623 331.086 127.797C329.109 126.971 326.897 125.446 326.169 124.408C325.125 122.918 324.439 122.739 322.911 123.557C321.846 124.126 320.974 125.234 320.974 126.019C320.974 128.609 333.69 140.323 339.906 143.46C346.496 146.786 347.526 147.974 342.947 146.968C338.865 146.072 337.753 146.969 339.149 150.033C340.13 152.185 339.969 152.839 337.996 154.735L335.704 156.936L336.226 153.965C337.054 149.249 330.834 142.475 325.676 142.475C323.785 142.475 316.521 135.43 314.618 131.751C312.584 127.82 310.322 127.061 307.116 129.234C302.288 132.507 298.667 133.613 294.88 132.974C289.848 132.124 286.683 133.878 287.485 137.071C287.903 138.738 287.67 139.483 286.73 139.483C285.982 139.483 284.065 140.604 282.471 141.975C280.877 143.346 279.229 144.468 278.809 144.468C277.575 144.47 274.093 150.771 274.089 153.01C274.085 155.151 270.184 159.369 266.419 161.303C265.22 161.918 262.43 162.422 260.219 162.422C257.176 162.422 255.929 162.923 255.095 164.482C254.002 166.524 253.968 166.519 251.412 163.963C249.013 161.565 247.632 160.965 242.791 160.217C240.248 159.823 239.818 154.068 241.721 145.868C242.534 142.362 242.933 138.434 242.608 137.138C241.662 133.373 244.622 131.153 249.572 131.913C261.003 133.668 267.69 133.765 269.257 132.198C271.411 130.045 272.382 122.945 271.068 118.964C270.211 116.367 269.032 115.306 265.514 113.962C260.34 111.987 260.231 110.076 265.289 110.026C267.217 110.006 269.997 109.202 271.467 108.239C272.938 107.275 274.565 106.749 275.082 107.068C276.492 107.939 281.832 104.862 283.606 102.156C284.463 100.848 286.151 99.5271 287.356 99.2198C288.562 98.9126 291.793 96.5708 294.537 94.016C298.426 90.394 300.467 89.2584 303.802 88.8604C307.934 88.3673 312.089 84.9704 310.139 83.6804C308.926 82.8785 307.913 78.0492 308.589 76.2899C308.908 75.4565 310.321 74.0208 311.727 73.0996L314.284 71.4248L313.628 75.5286C313.058 79.0905 313.203 79.5937 314.728 79.3389C315.694 79.1775 317.502 78.4869 318.745 77.8044C320.637 76.7652 321.101 76.8157 321.6 78.1152C322.455 80.3426 320.078 82.9615 318.437 81.6002C317.53 80.8482 316.955 80.8754 316.449 81.6943C315.927 82.5391 315.518 82.4932 314.918 81.5223C314.468 80.7939 313.87 80.4269 313.591 80.7068C313.311 80.9866 314.108 82.5026 315.363 84.0757C317.478 86.7273 317.881 86.8532 320.895 85.8027C323.477 84.903 324.717 84.9644 326.914 86.1006C329.396 87.3834 330.233 87.3223 335.003 85.5107C339.181 83.9235 340.828 83.72 342.677 84.5623C344.379 85.3372 345.639 85.3213 347.22 84.5048C351.707 82.1868 352.95 80.4388 352.393 77.2305C351.567 72.4749 353.08 70.9171 357.063 72.4202C359.773 73.443 360.565 73.4024 361.79 72.1777C363.087 70.8811 362.976 70.4021 360.85 68.1401C358.805 65.9638 358.662 65.4229 359.909 64.5819C360.717 64.0365 363.748 63.841 366.643 64.1476C371.942 64.7087 378.545 62.6394 377.395 60.7783C376.387 59.1485 370.305 58.6776 365.153 59.8303C360.583 60.8527 359.384 60.77 355.881 59.1911C350.442 56.7389 349.801 53.8698 353.532 48.6713C358.334 41.9801 359.212 39.8477 357.844 38.1998C355.819 35.7598 353.829 36.5553 349.201 41.655C346.756 44.3496 343.424 47.1057 341.797 47.7795C340.169 48.4534 338.156 50.3221 337.324 51.9323C335.967 54.5546 335.969 55.104 337.344 57.2016C338.188 58.4895 339.789 59.832 340.901 60.1848C343.961 61.1559 343.356 62.9785 338.978 65.9727C337.632 66.8936 335.836 69.4989 334.988 71.7624C333.924 74.5986 332.308 76.534 329.787 77.9892C326.232 80.0406 326.071 80.0486 324.107 78.2717C322.995 77.2657 321.815 75.2142 321.485 73.7125C321.155 72.2109 319.657 69.5113 318.156 67.7135L315.426 64.4447L311.965 66.554C310.061 67.7141 307.606 68.655 306.509 68.6449C303.343 68.6156 299.678 65.1969 299.432 62.0442C299.31 60.4776 298.903 58.4275 298.527 57.4884C297.633 55.2545 302.101 51.065 306.744 49.7835C311.403 48.4974 320.853 41.8762 322.464 38.7695C323.18 37.3875 325.607 34.6066 327.857 32.5897C330.108 30.5728 331.948 28.4781 331.948 27.9348C331.948 27.3915 334.081 26.1873 336.687 25.2588C339.294 24.3303 343.671 22.6456 346.414 21.5151C349.783 20.1271 353.995 19.3933 359.384 19.2555C368.8 19.0147 374.959 20.2625 380.04 23.4408C382.589 25.0356 384.602 25.5797 386.527 25.1947C389.971 24.506 408.333 30.1956 409.098 32.1886C409.867 34.1919 404.601 36.0829 400.07 35.4305C397.995 35.1317 393.703 34.3327 390.532 33.6549C386.265 32.7424 384.477 32.7137 383.647 33.5439C382.816 34.3742 383.231 34.987 385.246 35.9046C386.742 36.5862 388.615 38.3985 389.409 39.9319C391.428 43.8364 397.897 47.0194 401.234 45.7509C404.441 44.5321 404.419 44.1476 401.035 42.3127C397.906 40.6156 399.351 40.2487 403.281 41.7424C406.418 42.9351 409.973 41.4513 409.146 39.2946C408.758 38.2844 409.848 37.555 412.924 36.7672C419.506 35.0811 419.988 34.84 419.442 33.5057C418.247 30.5849 417.734 29.4029 418.096 28.9919C418.359 28.6927 419.087 28.8021 420.352 28.9465C421.956 29.1295 423.127 29.815 422.994 30.4923C422.862 31.1616 423.697 32.2139 424.85 32.8307C426.582 33.7572 427.948 33.4271 432.71 30.9319C439.692 27.2729 445.128 26.0799 447.155 27.7618C448.286 28.6996 450.16 28.7062 455.585 27.7914C459.421 27.1445 462.996 26.8844 463.529 27.2135C464.062 27.5426 464.792 27.3361 465.151 26.7546C465.937 25.4829 463.763 22.5974 462.573 23.3327C461.136 24.2205 456.418 22.6302 457.444 21.6041C458.478 20.5708 486.242 27.0385 487.903 28.6996C489.023 29.8193 492.569 28.3255 492.569 26.7339C492.569 26.1976 490.589 24.797 488.169 23.6216C480.666 19.9772 480.184 14.1404 487.241 12.3698C491.336 11.3422 493.107 12.5276 498.772 20.0878C503.754 26.7377 505.275 28.6531 504.99 30.2459C504.855 31.0041 504.311 31.6892 503.536 32.777C501.757 35.275 501.649 35.8596 502.884 36.3331C505.223 37.2304 510.229 34.0906 510.933 31.2844C511.759 27.9963 510.217 25.1941 506.536 23.2913C503.643 21.7953 501.548 19.0542 501.548 16.7631C501.548 15.9821 502.634 15.7873 504.791 16.1812C508.025 16.7717 510.7 15.5992 518.023 10.3811C519.698 9.18776 522.53 8.40139 525.385 8.33666C531.176 8.20536 533.05 7.23344 531.384 5.22604C530.73 4.4388 530.403 3.58705 530.657 3.33325C531.931 2.05951 548.356 -0.235695 552.138 0.331383C555.778 0.877014 556.905 0.581848 559.899 -1.70149C561.826 -3.17064 563.402 -4.76819 563.402 -5.25163C563.402 -6.47073 554.684 -6.36185 553.925 -5.13325C552.879 -3.44275 551.525 -4.03098 551.906 -6.00975C552.228 -7.6805 551.384 -7.95238 544.117 -8.51799C524.274 -10.0625 522.661 -10.4249 525.042 -12.8047C527.135 -14.897 532.268 -14.8564 536.565 -12.7137C538.325 -11.8357 541.241 -11.1173 543.045 -11.1173C544.849 -11.1173 546.602 -10.6685 546.941 -10.12C547.28 -9.57146 549.028 -9.12267 550.824 -9.12267C555.8 -9.12267 565.42 -6.97408 564.816 -5.99761C564.523 -5.52222 565.453 -5.13325 566.885 -5.13325C568.316 -5.13325 570.924 -4.36034 572.68 -3.4157C575.042 -2.14531 578.34 -1.68828 585.35 -1.66021C592.886 -1.63007 595.39 -1.24314 597.572 0.227676C599.081 1.24516 600.309 2.36259 600.301 2.71092C600.293 3.05923 597.99 4.61053 595.184 6.15823C588.407 9.89605 589.84 11.525 598.037 9.40155C603.347 8.02615 604.567 8.01732 608.963 9.32243C612.438 10.3541 614.655 10.5194 617 9.90276V-109ZM0 536.805C0.238084 536.5 0.77757 536.232 1.60925 535.968C4.56801 535.029 5.11847 529.814 2.62796 526.318C1.43931 524.649 0.813812 522.69 1.17194 521.757C1.4435 521.049 1.05895 519.999 0 518.575V536.805ZM0 25.1759C0.0775518 24.8524 0.0787305 24.5266 0 24.2048V25.1759ZM31.5917 568.018C30.3879 571.183 31.8054 573.04 36.8732 574.936C38.6685 575.607 41.4281 575.97 43.0056 575.741C44.5831 575.512 47.5012 575.289 49.4903 575.246L53.1068 575.168L50.1671 574.101C48.5504 573.514 44.5525 571.305 41.2831 569.193C38.0136 567.08 34.7237 565.352 33.9721 565.352C33.2206 565.352 32.1494 566.552 31.5917 568.018ZM63.7816 560.565C63.1231 561.223 62.5844 562.12 62.5844 562.559C62.5844 563.937 64.6683 563.432 67.1993 561.442C69.9163 559.305 69.4743 558.664 65.0785 558.363C60.1533 558.027 58.4414 558.314 59.0926 559.368C59.4317 559.916 59.1216 560.378 58.4033 560.395C57.6661 560.412 57.9278 560.908 59.004 561.532C60.5096 562.406 61.1622 562.295 62.1069 561.003C62.7649 560.104 63.6802 559.368 64.1409 559.368C64.6017 559.368 64.44 559.906 63.7816 560.565ZM483.591 158.03C483.591 161.828 483.223 162.561 480.647 163.892C479.028 164.729 477.569 165.392 477.405 165.365C477.24 165.338 474.022 163.734 470.252 161.8L463.398 158.284L463.896 153.122C464.514 146.71 463.598 144.235 458.602 138.817C456.433 136.465 454.659 133.873 454.659 133.057C454.659 132.241 453.761 131.094 452.664 130.506C449.715 128.929 450.167 127.657 455.382 122.871C463.462 115.455 469.977 115.023 474.656 121.592C476.585 124.301 475.896 126.431 473.557 124.986C471.823 123.914 467.761 125.402 466.624 127.526C465.122 130.332 466.836 133.054 471.652 135.51C473.829 136.62 475.609 137.984 475.609 138.541C475.609 139.219 476.246 139.212 477.537 138.521C479.135 137.667 479.819 137.987 481.528 140.386C482.662 141.978 483.591 143.725 483.591 144.267C483.591 145.639 480.919 146.525 479 145.789C477.547 145.231 477.541 145.443 478.935 148.137C479.777 149.765 481.169 151.681 482.028 152.394C483.008 153.207 483.591 155.308 483.591 158.03ZM449.21 434.156C449.945 440.043 450.346 440.886 453.162 442.483C454.174 443.056 454.702 443.396 455.274 443.506C456.108 443.667 457.035 443.342 459.688 442.547C463.89 441.289 465.348 438.749 467.913 428.216C468.715 424.925 471.478 416.403 474.053 409.279C478.867 395.965 479.148 393.298 476.381 387.228L475.282 384.815L473.7 388.235C471.629 392.711 462.989 400.336 458.996 401.212C454.758 402.142 453.207 405.973 454.118 413.263C454.749 418.312 454.543 419.208 451.682 423.856C448.867 428.429 448.622 429.452 449.21 434.156ZM500.551 422.73C500.002 422.73 499.553 423.179 499.553 423.728C499.553 424.276 500.002 424.725 500.551 424.725C501.099 424.725 501.548 424.276 501.548 423.728C501.548 423.179 501.099 422.73 500.551 422.73ZM507.534 419.24C506.985 419.579 506.536 420.054 506.536 420.296C506.536 420.538 506.985 420.736 507.534 420.736C508.083 420.736 508.532 420.26 508.532 419.68C508.532 419.099 508.083 418.901 507.534 419.24ZM454.6 385.828C454.019 385.828 453.821 386.277 454.16 386.826C454.499 387.374 454.975 387.823 455.217 387.823C455.459 387.823 455.657 387.374 455.657 386.826C455.657 386.277 455.181 385.828 454.6 385.828ZM504.541 351.919C503.992 351.919 503.544 352.367 503.544 352.916C503.544 353.464 503.992 353.913 504.541 353.913C505.09 353.913 505.539 353.464 505.539 352.916C505.539 352.367 505.09 351.919 504.541 351.919ZM302.019 324.491C301.471 324.83 301.022 325.306 301.022 325.548C301.022 325.79 301.471 325.987 302.019 325.987C302.568 325.987 303.017 325.512 303.017 324.931C303.017 324.35 302.568 324.152 302.019 324.491ZM308.005 312.523C307.456 312.862 307.007 313.337 307.007 313.579C307.007 313.821 307.456 314.019 308.005 314.019C308.554 314.019 309.003 313.544 309.003 312.963C309.003 312.382 308.554 312.184 308.005 312.523ZM604.042 288.251C603.236 290.408 603.87 298.535 604.986 300.346C605.601 301.345 609.556 300.15 610.518 298.675C611.523 297.134 610.548 294.248 607.502 289.747C604.96 285.992 604.896 285.964 604.042 288.251ZM16.019 280.765C16.38 281.126 16.1754 282.024 15.5643 282.76C14.6975 283.804 14.8933 284.099 16.4542 284.099C17.6163 284.099 18.6741 283.262 18.9771 282.104C19.3749 280.583 19.0077 280.109 17.4307 280.109C16.2932 280.109 15.6579 280.405 16.019 280.765ZM30.1021 268.141C29.8601 268.141 29.6621 268.59 29.6621 269.138C29.6621 269.687 30.1375 270.136 30.7186 270.136C31.2997 270.136 31.4977 269.687 31.1586 269.138C30.8195 268.59 30.344 268.141 30.1021 268.141ZM24.6739 261.658C24.1252 261.997 23.6762 262.473 23.6762 262.714C23.6762 262.956 24.1252 263.154 24.6739 263.154C25.2226 263.154 25.6715 262.679 25.6715 262.098C25.6715 261.517 25.2226 261.319 24.6739 261.658ZM181.304 258.168C180.755 258.168 180.307 258.616 180.307 259.165C180.307 259.713 180.755 260.162 181.304 260.162C181.853 260.162 182.302 259.713 182.302 259.165C182.302 258.616 181.853 258.168 181.304 258.168ZM21.6809 253.679C21.1322 254.018 20.6833 254.745 20.6833 255.293C20.6833 255.842 21.1322 256.013 21.6809 255.674C22.2296 255.335 22.6786 254.609 22.6786 254.06C22.6786 253.512 22.2296 253.34 21.6809 253.679ZM13.1491 250.805C12.2614 250.465 11.8609 250.632 12.2104 251.197C12.5456 251.74 13.2423 252.183 13.7587 252.183C15.1937 252.183 14.8775 251.469 13.1491 250.805ZM171.269 250.189C170.688 250.189 170.49 250.638 170.829 251.186C171.168 251.735 171.643 252.183 171.885 252.183C172.127 252.183 172.325 251.735 172.325 251.186C172.325 250.638 171.85 250.189 171.269 250.189ZM16.6339 248.194C16.0528 248.194 15.8548 248.643 16.1939 249.191C16.533 249.74 17.0085 250.189 17.2504 250.189C17.4924 250.189 17.6904 249.74 17.6904 249.191C17.6904 248.643 17.2149 248.194 16.6339 248.194ZM21.1233 248.194C20.8813 248.194 20.6833 248.643 20.6833 249.191C20.6833 249.74 21.1587 250.189 21.7398 250.189C22.3209 250.189 22.5189 249.74 22.1797 249.191C21.8406 248.643 21.3652 248.194 21.1233 248.194ZM6.21747 243.844C5.39441 244.16 4.72098 244.594 4.72098 244.81C4.72098 245.026 5.39441 245.202 6.21747 245.202C7.04053 245.202 7.71393 244.767 7.71393 244.236C7.71393 243.705 7.04053 243.528 6.21747 243.844ZM18.688 178.878C18.1393 179.217 17.6904 179.692 17.6904 179.934C17.6904 180.176 18.1393 180.374 18.688 180.374C19.2367 180.374 19.6857 179.899 19.6857 179.318C19.6857 178.737 19.2367 178.539 18.688 178.878ZM403.72 169.403C401.825 169.403 401.191 170.473 402.382 171.664C403.247 172.528 407.567 170.373 408.182 168.769C408.782 167.207 407.201 166.906 406.273 168.406C405.934 168.954 404.785 169.403 403.72 169.403ZM365.37 168.568L368.363 169.938C371.797 171.51 376.469 171.812 377.271 170.514C377.992 169.348 374.331 168.417 369.36 168.5L365.37 168.568ZM325.965 157.145C323.88 157.69 324.068 157.945 328.061 159.989C332.027 162.019 332.512 162.075 333.126 160.582C333.499 159.674 333.835 158.651 333.874 158.308C333.987 157.305 328.461 156.493 325.965 157.145ZM308.391 144.653C307.269 145.775 307.201 146.722 308.065 149.199C309.492 153.293 311.996 152.474 311.996 147.912C311.996 144.05 310.42 142.625 308.391 144.653ZM287.803 149.706C288.414 147.872 285.378 148.184 284.671 150.027C284.251 151.121 284.571 151.498 285.728 151.274C286.641 151.097 287.575 150.391 287.803 149.706ZM310.499 136.13C308.947 136.725 308.511 138.658 309.668 139.815C311.019 141.166 311.996 140.412 311.996 138.018C311.996 136.239 311.58 135.715 310.499 136.13ZM70.5342 115.546C70.0028 115.546 69.5679 116.219 69.5679 117.042C69.5679 117.865 69.7443 118.538 69.96 118.538C70.1756 118.538 70.6105 117.865 70.9263 117.042C71.2422 116.219 71.0657 115.546 70.5342 115.546ZM60.6382 113.434L64.3548 113.824C71.801 114.605 76.1297 114.516 79.7558 113.51C83.2122 112.55 83.3859 112.321 82.3615 110.073C81.7233 108.673 80.0717 107.404 78.4148 107.04C74.6194 106.206 73.2032 103.629 75.2801 101.335C76.1973 100.321 76.3917 99.5886 75.7432 99.5886C75.1286 99.5886 71.4785 102.704 67.632 106.511L60.6382 113.434ZM265.416 99.6062C263.874 100.162 261.714 101.06 260.617 101.601C259.091 102.354 259.442 102.433 262.113 101.939C264.034 101.583 269.098 100.788 273.368 100.172C279.171 99.3351 280.844 98.7658 279.995 97.9173C279.147 97.0688 279.514 96.3536 281.452 95.0843C284.313 93.2107 283.951 91.1453 280.902 91.9423C279.416 92.3308 278.579 91.5965 277.306 88.7878C274.65 82.9254 272.04 79.5733 269.333 78.5444L266.811 77.5858L269.049 75.205L271.286 72.8242L268.944 72.4691C267.656 72.2738 266.715 71.5637 266.852 70.8911C266.989 70.2184 266.765 69.6757 266.353 69.6833C263.61 69.7393 260.659 74.9014 261.944 77.3975C262.437 78.3575 262.64 79.7039 262.394 80.3896C261.965 81.5868 263.199 82.0563 265.862 81.709C267.017 81.5583 269.097 85.4335 269.097 87.7372C269.097 88.2786 267.751 89.1907 266.105 89.7641C264.424 90.3499 263.398 91.2674 263.763 91.8582C264.121 92.4366 263.592 93.5102 262.588 94.2441C260.901 95.477 261.005 95.627 263.953 96.2163C268.25 97.0755 268.813 98.3807 265.416 99.6062ZM244.658 91.6032C243.841 93.1829 243.452 95.2029 243.793 96.092C244.193 97.1345 244.988 97.4604 246.03 97.0096C246.92 96.6252 249.556 95.6486 251.888 94.8394C255.444 93.6053 256.128 92.9403 256.128 90.7161C256.128 89.2576 256.827 87.0659 257.682 85.8459C258.537 84.6257 258.959 83.1795 258.621 82.6319C257.698 81.1389 251.552 81.4335 250.223 83.0345C249.585 83.8034 247.958 84.7096 246.609 85.0482C244.069 85.6854 243.421 87.0486 245.15 88.1168C245.777 88.5043 245.596 89.7906 244.658 91.6032ZM263.111 85.127C262.562 85.466 262.113 85.9413 262.113 86.1832C262.113 86.4251 262.562 86.623 263.111 86.623C263.66 86.623 264.109 86.1477 264.109 85.5668C264.109 84.9859 263.66 84.788 263.111 85.127ZM346.747 59.9813C344.65 60.1392 344.324 61.2836 346.165 62.0261C348.23 62.8591 348.576 62.75 348.576 61.265C348.576 60.4832 347.753 59.9055 346.747 59.9813ZM119.431 43.7838C117.601 48.1988 120.619 53.4867 126.932 56.9285C129.676 58.4242 132.594 59.6426 133.417 59.6359C136.457 59.6114 139.396 57.025 144.271 50.0854C150.34 41.4456 153.744 39.2175 163.817 37.2908C168.637 36.3689 172.755 34.9096 174.693 33.437C180.636 28.9212 184.677 27.3123 190.283 27.2285C193.301 27.1834 199.695 26.3217 204.493 25.3136C211.759 23.7867 213.022 23.2467 212.054 22.0804C211.24 21.1002 209.777 20.8685 207.174 21.3081C203.086 21.9986 200.463 20.0821 204.171 19.1128C205.829 18.6793 206.042 18.2646 205.156 17.1971C202.884 14.4597 207.143 14.4735 211.102 17.2163C214.02 19.2375 215.442 19.6555 217.195 19.0071L219.483 18.1613L216.953 16.2382C215.561 15.1805 212.971 13.5156 211.197 12.5385C207.44 10.4702 207.948 9.43791 212.805 9.26929C217.179 9.11747 225.998 5.04565 226.693 2.85781C226.982 1.94711 228.541 -0.0645676 230.157 -1.61256C232.382 -3.74294 232.875 -4.83986 232.187 -6.12502C230.592 -9.10429 236.609 -13.7704 243.158 -14.6324C246.176 -15.0296 249.543 -16.0139 250.641 -16.8197C252.441 -18.1418 251.988 -18.2203 245.997 -17.624C240.451 -17.072 238.712 -17.2933 235.425 -18.9697C229.865 -21.8053 215.729 -23.5671 210.289 -22.1025C207.944 -21.4714 203.791 -21.2436 200.923 -21.5889C197.548 -21.9953 191.296 -21.4561 182.801 -20.0258C173.678 -18.49 166.576 -17.9189 158.857 -18.1002C134.412 -18.6747 133.631 -18.5893 123.386 -14.2216C116.769 -11.4005 111.446 -9.89497 105.509 -9.16493C100.86 -8.59317 96.8192 -8.12506 96.5305 -8.12468C96.2417 -8.12429 95.9417 -7.01715 95.8636 -5.66438C95.6759 -2.40776 97.7908 -1.77681 109.144 -1.7025C117.481 -1.64792 118.529 -1.42163 120.963 0.850784C124.271 3.93829 127.593 10.2399 126.885 12.085C126.574 12.8951 127.34 13.9089 128.747 14.55C131.528 15.8168 132.952 20.9323 131.354 23.9174C130.777 24.9949 128.163 27.1941 125.545 28.8046C120.032 32.1952 117.877 35.8117 119.529 38.8976C120.323 40.3804 120.296 41.6943 119.431 43.7838ZM50.3604 44.8037C51.4269 46.4876 54.0524 48.942 56.1949 50.2581C60.0607 52.6326 64.9968 53.4617 65.963 51.8987C66.2399 51.4508 65.1361 50.2987 63.5102 49.3385C58.3204 46.2738 62.0667 44.3812 67.63 47.2573C70.46 48.7203 70.626 48.685 71.6682 46.3982C72.514 44.5424 72.4003 43.3274 71.1557 40.9213C69.6391 37.9895 69.6592 37.7741 71.5432 36.7661C73.0827 35.9424 74.4189 36.1563 77.4772 37.7161C81.8734 39.9582 83.4419 39.7278 85.4282 36.5481C85.9071 35.7816 86.2436 35.29 86.2378 34.8025C86.226 33.8152 84.8099 32.8446 80.3277 29.64C78.7276 28.496 78.0479 27.0093 78.0479 24.6533C78.0479 21.5114 77.7362 21.1979 73.1795 19.7565C70.3204 18.8521 67.3884 17.0597 66.0755 15.4137C64.1774 13.034 63.5291 12.7771 61.7812 13.7123C58.8787 15.2652 58.4821 15.1738 53.3352 11.7657C49.4669 9.20416 48.1471 8.82737 45.0663 9.40516C43.0501 9.78329 39.9175 11.3944 38.105 12.9853C33.8321 16.7359 32.3523 14.8071 36.2872 10.616L39.1397 7.57783L35.1492 8.2877C30.1302 9.1805 21.6809 15.1953 21.6809 17.8754C21.6809 19.3343 27.5693 20.9066 30.7831 20.3058C32.6357 19.9595 36.297 20.1577 38.9192 20.7463C42.8153 21.6209 44.2377 21.5318 46.7 20.2588C49.5165 18.8028 49.9331 18.837 53.082 20.7825C54.9348 21.9273 57.6253 24.8675 59.0608 27.3163C60.4963 29.7651 62.0151 31.7687 62.4358 31.7687C62.8565 31.7687 64.0721 32.4083 65.1372 33.1902C66.9993 34.557 66.9597 34.6552 64.1091 35.7429C61.9903 36.5514 60.4822 36.5725 58.8232 35.8168C56.1283 34.5893 51.2815 36.5665 50.2225 39.3253C49.6954 40.6984 48.6912 40.8593 44.1713 40.2947C38.2283 39.5524 32.8922 41.178 35.8464 42.8307C36.7002 43.3084 38.8354 43.2558 40.7382 42.7103C46.3588 41.0988 48.2784 41.5164 50.3604 44.8037ZM262.612 50.7184C261.789 50.7184 261.116 51.0924 261.116 51.5495C261.116 52.0066 261.789 52.3806 262.612 52.3806C263.435 52.3806 264.109 52.0066 264.109 51.5495C264.109 51.0924 263.435 50.7184 262.612 50.7184ZM12.3303 45.8238C15.0846 45.0636 16.6121 45.1521 18.5789 46.1858C20.8145 47.3607 21.2989 47.3475 22.0092 46.0919C23.1232 44.1224 21.2904 42.0972 17.1606 40.7346C13.4913 39.524 11.4282 40.1849 8.38602 43.5455C6.00969 46.1705 7.64729 47.1165 12.3303 45.8238ZM212.064 44.2902C212.979 44.001 215.074 44.6496 216.721 45.7316C218.367 46.8136 220.387 47.5158 221.21 47.292C230.294 44.8218 234.055 43.4512 236.083 41.8715L238.485 39.9999L235.788 38.2334C233.46 36.708 232.546 36.63 229.102 37.6617C226.908 38.3189 224.267 38.5884 223.234 38.2606C220.271 37.3204 211.505 40.5954 210.912 42.8645C210.525 44.3428 210.805 44.6886 212.064 44.2902ZM264.109 21.7952C264.109 20.5455 263.05 20.5455 261.116 21.7952C259.906 22.577 260.049 22.7649 261.864 22.7772C263.099 22.7856 264.109 22.3437 264.109 21.7952ZM439.788 16.7746C439.862 17.348 441.024 17.7806 444.184 19.0282C446.378 19.8949 449.521 20.6241 451.167 20.6486L454.16 20.6932L451.915 19.1278C448.972 17.0755 449.08 14.6716 452.284 10.8643C455.326 7.25024 459.945 5.09976 467.628 3.71976C475.372 2.32904 476.721 1.8427 476.014 0.698532C475.65 0.109657 473.679 -0.0430069 471.261 0.330353C468.989 0.681137 464.211 1.19975 460.645 1.48283C457.078 1.7659 452.813 2.61095 451.167 3.36069C448.297 4.66798 444.235 8.55821 444.2 10.0334C444.191 10.4212 443.286 11.4167 442.188 12.2457C441.091 13.0747 440.585 13.7672 441.063 13.7846C441.542 13.8021 441.366 14.5004 440.672 15.3365C440.107 16.0168 439.742 16.4223 439.788 16.7746ZM21.759 7.35831C17.6122 6.04256 7.85018 9.62146 9.27951 11.9335C9.62684 12.4953 10.6512 12.6397 11.556 12.2544C12.4607 11.8691 15.1309 11.2331 17.4897 10.8411C22.7613 9.96507 24.7812 8.31725 21.759 7.35831ZM28.8904 3.38412C29.0405 3.52335 34.5506 4.06565 41.135 4.58925C47.7195 5.11285 53.7802 5.58907 54.6032 5.64759C55.4263 5.70608 57.671 4.91454 59.5915 3.88863L63.0832 2.02334L60.2594 1.3088C58.7063 0.915794 54.2169 0.826157 50.2829 1.1096C44.4467 1.53009 42.4217 1.26439 39.2802 -0.334038C36.057 -1.97398 34.972 -2.10336 32.6177 -1.12846C30.2232 -0.136887 27.9983 2.55665 28.8904 3.38412ZM326.711 -3.15389C322.862 -3.13246 323.334 -1.995 328.235 0.513191L332.447 2.66895L335.69 -0.914696C337.473 -2.8857 338.932 -4.86562 338.932 -5.31451C338.932 -6.69116 342.605 -6.21936 343.884 -4.67838C344.547 -3.87959 344.782 -2.72893 344.407 -2.12138C343.929 -1.34794 344.8 -1.21859 347.314 -1.69C349.635 -2.12531 350.904 -1.98259 350.904 -1.28623C350.904 -0.693878 351.566 -0.463089 352.375 -0.773422C353.637 -1.25761 353.647 -1.53618 352.446 -2.73682C351.676 -3.50636 350.602 -4.13598 350.058 -4.13598C348.542 -4.13598 342.936 -7.52154 342.929 -8.44194C342.926 -8.8903 343.708 -9.02644 344.669 -8.74446C349.38 -7.36073 353.68 -7.09492 356.152 -8.03453C360.909 -9.84259 359.234 -11.1175 352.101 -11.1175C348.155 -11.1175 344.816 -11.6181 344.12 -12.3143C343.189 -13.2451 342.923 -13.2451 342.923 -12.3143C342.923 -11.656 342.281 -11.1175 341.496 -11.1175C340.711 -11.1175 339.87 -10.1076 339.627 -8.87341L339.185 -6.62938L338.444 -8.87341C337.71 -11.0938 334.942 -12.0633 334.942 -10.1C334.942 -9.43289 331.678 -9.31186 325.464 -9.7485C317.305 -10.3218 315.986 -10.2007 315.986 -8.87798C315.986 -7.31641 317.159 -6.61718 322.42 -5.0422C324.491 -4.42218 325.586 -4.52428 326.12 -5.38708C326.696 -6.31896 327.155 -6.33459 328.038 -5.45229C328.676 -4.81429 329.93 -4.52353 330.823 -4.80669C332.227 -5.25173 332.245 -5.17565 330.951 -4.24532C330.128 -3.65343 328.22 -3.16234 326.711 -3.15389ZM55.6009 -2.63995C59.4058 -2.98988 61.8526 -2.69587 63.5821 -1.68091C64.9538 -0.875893 66.0761 -0.207039 66.0761 -0.194542C66.0761 -0.182053 68.7208 -1.51258 71.9532 -3.15126C75.1856 -4.78995 78.4489 -6.13069 79.205 -6.13069C79.9611 -6.13069 83.1036 -7.47711 86.1883 -9.12274C89.2731 -10.7684 92.801 -12.1148 94.0283 -12.1148C99.0692 -12.1148 111.339 -15.6471 118.885 -19.2703L126.932 -23.1349L122.057 -22.5301C119.376 -22.1974 111.071 -21.5391 103.601 -21.0673C89.2 -20.1575 67.2681 -18.1269 66.8011 -17.6601C66.1476 -17.0068 81.6281 -16.0884 83.8588 -16.6481C87.0863 -17.4579 88.1942 -15.5348 85.3705 -14.0241C83.8966 -13.2355 80.2908 -13.027 74.5527 -13.3987C65.2798 -13.9992 62.4142 -13.328 65.0203 -11.1657C67.4644 -9.13791 65.7206 -7.93645 61.2349 -8.55768C57.7989 -9.03353 57.5066 -8.95574 59.5112 -8.09896C63.7307 -6.29543 60.3089 -4.62802 52.5175 -4.6911C46.2867 -4.74154 45.7878 -4.60852 47.8292 -3.44141C49.31 -2.59485 52.0445 -2.31287 55.6009 -2.63995ZM42.6687 -14.1057C39.1156 -12.2647 39.2929 -11.8624 44.128 -10.7928C48.0976 -9.91472 49.5631 -10.1567 53.1741 -12.2866C56.6388 -14.3303 56.7411 -14.5315 54.977 -15.833C52.7488 -17.477 47.8478 -16.7892 42.6687 -14.1057Z" fill="white"/>
</g>
</svg>
