<svg width="825" height="825" viewBox="0 0 825 825" fill="none" xmlns="http://www.w3.org/2000/svg">
<g clip-path="url(#clip0_2926_45843)">
<path d="M412.368 0.500732C349.044 0.700949 286.619 15.5 229.944 43.7478C173.269 71.9957 123.871 112.931 85.5886 163.374L88.7839 160.042L92.9773 156.048L95.2292 154.096L98.9968 149.96L100.675 147.688L102.007 146.581L103.712 144.087L105.677 141.991L108.643 137.891L109.954 136.497L112.294 134.878L118.796 128.973L126.45 123.169L127.227 122.913L129.784 120.643L135.302 116.346L138.893 114.616L142.624 111.864L145.288 111.563L148.876 110.352L152.952 108.305L155.794 108.647L162.952 107.686L169.376 105.936L174.057 104.268L176.925 103.02L177.497 103.29L172.243 108.219L166.573 110.741L167.163 111.348L171.35 110.155L176.014 108.46L176.354 108.024L185.778 101.36L189.61 98.9929L196.251 93.446L201.788 91.7L204.251 92.0769L209.581 88.5007L213.762 88.1355L220.292 85.1003L222.723 85.2332L225.897 83.9812L229.678 81.9246L234.419 81.7546L241.479 79.2859L247.178 78.8855L249.958 76.8074L254.282 73.366L258.7 71.2156L268.739 68.4167L272.151 66.8523L278.452 64.1648L282.032 61.5398L289.425 58.991L294.425 57.8718L296.921 55.698L293.872 54.6589L295.321 53.6531L298.163 51.4363L299.805 49.4187L302.659 47.3328L304.96 48.325L306.671 51.0496L304.462 53.2468L306.11 53.3933L308.165 50.366L308.212 47.9656L310.708 44.45L306.88 44.4617L307.942 41.6746L310.452 39.3445L313.126 37.3796L312.845 36.1746L317.19 33.1218L317.223 31.8132L320.622 29.532L323.401 28.8445L326.374 27.2136L329.618 25.4148L332.239 23.8738L338.583 21.5671L339.505 21.7351L335.977 23.7292L332.723 25.3542L329.708 27.5945L325.239 29.2312L324.3 30.6257L320.595 33.5085L320.27 34.1921L318.501 35.8406L319.809 37.6492L319.585 39.5613L322.764 37.4851L324.304 37.4792L325.3 36.0378L328.776 36.4284L328.88 35.3132L331.329 36.0398L333.934 34.0495L336.106 33.4167L337.667 34.7331L337.819 35.7976L340.78 36.0456L344.872 34.364L348.679 34.821L351.462 34.8816L352.497 36.3835L355.829 36.9519L355.563 38.8405L353.958 41.0417L353.807 42.7956L351.43 43.6472L348.971 43.7527L347.52 45.821L345.122 46.2116L343.54 47.7859L345.159 48.9382L347.22 48.9734L345.962 50.7644L347.708 50.196L350.313 48.6511L350.735 47.7409L353.534 47.7761L357.516 46.3738L362.333 46.1062L364.272 47.1042L368.927 48.2234L365.589 50.4187L360.268 53.4655L358.014 54.0417L357.356 52.3288L351.585 54.0671L355.194 55.4109L359.319 55.7683L362.231 56.9616L365.577 57.8152L369.716 58.1218L369.229 60.2956L364.856 61.4577L362.718 63.8698L363.218 65.7605L361.921 68.1335L359.973 69.2019L356.886 72.1335L354.698 72.5827L352.929 75.6491L349.128 76.1491L346.19 75.239L345.872 76.28L342.155 77.6179L341.501 76.8112L337.723 77.7507L335.979 79.0925L330.507 80.3601L326.274 82.2507L324.218 82.782L322.29 84.8249L318.081 85.8972L315.389 86.9323L310.786 88.8308L305.608 89.9226L303.243 91.237L303.688 93.4323L303.13 95.8816L300.007 97.8542L299.852 100.991L298.647 103.96L295.372 104.294L295.528 105.876L297.792 107.032L296.218 107.93L288.805 109.274L290.843 112.454L286.305 111.639L285.608 113.956L286.819 114.966L284.96 116.971L280.596 119.216L275.657 123.161L273.098 125.624L272.462 127.516L267.932 129.889L266.319 126.905L263.095 130.454L261.27 135.987L261.647 137.741L256.93 140.005L259.335 142.198L262.85 140.04L264.571 141.315L264.005 143.757L264.126 145.344L262.052 147.061L257.884 149.38L257.784 151.684L253.932 155.76L254.333 158.967L253.667 162.135L257.86 161.247L258.774 162.928L256.138 166.587L249.809 167.782L255.022 168.122L254.721 169.882L261.442 169.452L265.759 166.493L268.704 163.729L276.221 162.739L281.014 164.141L279.772 166.682L276.679 169.079L268.946 173.259L265.606 172.251L264.264 176.298H264.262L257.346 178.036L262.762 179.409L258.594 183.094L253.559 183.93L249.241 187.442L254.319 188.167L260.303 187.823L267.718 185.571L267.637 188.534L267.198 191.788L264.473 195.692L261.202 197.094L257.313 196.921L254.12 199.821L250.856 200.844L245.339 198.294L243.77 195.499L245.409 192.421L242.005 192.899L236.194 192.571L233.257 192.866L228.591 191.53L227.946 188.079L225.13 186.96L220.919 188.145L220.073 185.356L214.915 183.71L207.866 182.926L202.96 183.368L195.721 185.528L194.491 190.245L188.682 193.688L184.026 196.893L185.259 200.776L182.872 207.69L180.807 211.872L178.178 215.477L176.997 220.303L174.975 225.005L175.55 230.546L175.69 234.385L170.524 236.731L164.952 241.175L159.157 247.55L155.165 256.184L157.71 257.673L163.979 255.696L172.417 248.147L174.807 243.962L179.001 247.44L184.204 248.448L188.837 247.583L192.665 244.874L197.01 239.784L200.405 233.606L207.8 233.354L212.932 229.053L222.313 222.975L224.321 224.014L224.159 229.339L224.557 232.319L227.01 233.483L225.948 237.089L223.872 242.432L221.924 244.721L223.758 249.634L218.805 252.971L211.967 259.081L212.417 262.235L210.2 266.753L215.624 268.268L223.358 265.895L227.046 265.51L223.405 271.542L218.821 280.874L214.608 289.573L210.516 291.522L210.354 297.956L209.405 303.302L211.733 309.016L211.68 312.43L208.552 317.96L209.85 320.825L209.091 323.95L204.05 330.194L200.411 330.13L196.921 329.905L191.079 326.856L184.091 327.247L179.272 322.741L175.468 314.813L172.319 309.88L169.868 306.788L164.608 307.354L159.932 305.049L150.637 306.04L143.999 306.044L146.331 308.409L155.829 308.118L164.089 311.464L167.698 316.034L167.243 321.397L161.927 321.483L157.491 327.862L154.702 332.741L155.481 339.821L160.253 344.843L167.889 342.43L164.809 346.442L164.909 350.53L158.739 349.714L150.46 344.948L146.227 343.403L140.346 342.88L138.919 339.678L142.675 335.382L150.448 337.616L146.634 331.993L143.641 328.512L142.489 330.733L137.968 329.081L134.251 326.831L130.78 324.167L126.643 324.979L125.645 325.255L123.2 327.678L121.442 331.468L122.157 333.239L123.589 331.104L123.19 333.341L121.749 334.372L119.677 332.434L118.829 330.413L116.643 328.231L115.616 326.694L114.344 324.548L111.585 322.436L115.036 327.604L114.737 329.686L110.864 325.305L109.759 322.675L110.36 322.247L108.604 322.227L108.893 323.659L105.337 325.995L100.745 326.37L101.745 324.901L101.618 323.731L102.196 321.221L100.161 324.507L99.7644 326.319L98.1765 328.128L95.9832 328.485L91.6882 329.598L91.7116 329.02L95.0944 327.337L95.9402 323.417L99.3913 319.245L97.2038 320.315L94.7741 324.04L94.4753 320.63L94.1061 324.893L90.1335 329.311L90.2956 330.889L89.0202 332.901L85.1472 338.038L81.1374 338.512L78.36 335.114L75.0768 334.69L74.1198 332.657L71.9909 331.911L70.4968 332.714L66.5964 330.362L64.112 329.737L61.3483 330.034L58.5593 332.358L56.2565 336.231L53.6393 341.606L51.7565 346.919L50.3112 348.858L47.1257 356.386L44.944 359.245L43.6765 360.768L41.4811 362.237L40.7136 361.276L40.4655 358.221L41.6159 355.466L41.8835 352.512L44.0104 346.042L46.0124 340.36L47.1608 337.911L49.6159 336.069L51.2311 332.307L53.4538 324.886L53.6628 322.313L51.235 319.225L51.28 318.13L52.6198 313.794L53.1218 309.68L52.0573 304.602L52.0807 299.766L51.5729 296.26L50.9459 294.704L49.9733 296.766L48.5143 298.292L47.8717 300.139L47.3541 299.706L47.7819 297.26L47.0319 296.128V292.362L48.86 286.575L48.4283 282.692L49.3365 278.182L49.1979 275.343L48.5826 272.009L46.2994 270.184L45.276 266.762L43.9557 265.751L42.5905 266.233L40.3326 268.721L38.7584 270.759L37.5651 273.005L37.5591 273.018L37.5551 273.01L35.0883 274.292L33.0394 276.098L29.2211 280.819L27.9301 282.188L26.3246 285.215L24.8207 288.762L22.6859 292.874L20.434 299.395L18.9261 302.94L17.5648 307.046L16.5082 313.899L15.4183 317.868L15.8324 321.499L15.9477 325.237L16.3168 328.569L16.7289 331.276L17.7562 333.02L19.2094 331.86L21.3324 328.784L22.1176 328.491L22.9574 331.024L23.9203 335.702L24.2231 340.577L24.7699 343.448L24.35 345.637L23.0805 347.528L21.268 347.202L19.643 348.538L19.3168 350.284L18.2094 351.337L16.2797 353.342L16.7465 350.856L16.6156 349.788L16.2816 350.438L16.3539 351.491L15.7328 352.573L14.7016 353.555L14.4008 354.702L13.5864 355.674L13.4106 356.434L12.3051 357.985L11.6801 358.053L11.5453 357.196L10.7777 357.6L10.5453 360.184L10.8735 360.014L10.7465 362.19L10.7172 362.932L11.1664 363.378L11.3383 364.893L11.227 365.762L11.4086 366.401L11.5004 369.356L11.8441 371.788L12.2816 373.073L12.5863 373.225L12.7172 375.204L12.766 376.821L13.0219 378.153L13.3578 378.86L13.4789 381.981L13.5785 382.95L13.5004 385.456L13.3481 388.044L13.4243 390.723L13.186 393.401L12.9164 393.36L12.4555 394.081L11.9067 396.286L11.0688 396.546L10.2719 397.758L9.50824 399.557L9.14886 401.012L8.46722 403.173L8.15863 402.764L7.42035 404.165L7.10394 405.733L6.53363 405.739L6.2016 407.212L6.13129 408.805L5.6723 412.663L5.57861 416.636L5.5903 421.184L5.5983 424.811L5.33267 425.651L5.77408 428.087L5.98306 428.247L6.06506 430.895L6.79749 433.313L7.66663 434.54L8.77405 436.999L9.63733 437.53L10.4283 440.852L10.2545 441.095L11.1178 444.331L11.6705 447.575L11.901 450.751L12.2721 454.087L13.1842 457.071L15.3737 457.968L16.3073 459.721L16.7115 458.247L18.1217 455.337L19.901 456.282L21.2584 459.589L21.7096 459.044L23.3248 463.628L25.8209 465.452L27.0553 466.464L28.9166 466.745L29.6979 468.901L29.9733 471.528L29.0162 472.102L28.6217 473.069L27.0201 470.518L27.2174 474.386L26.528 476.782L24.7506 477.161L24.7877 482.889L25.9342 484.88L27.3112 482.68L26.944 479.386L27.7623 475.552L31.485 480.182L31.7604 477.218L33.1256 477.546L33.1176 482.764L35.0161 486.489L36.1254 492.514L35.8305 494.296L38.436 498.968L41.7934 503.942L43.0512 509.001L45.3539 513.464L47.5453 514.782L47.8793 513.624L52.1176 519.501L56.3266 525.331L52.9965 522.593L53.6645 526.563L56.4301 530.854L58.6801 536.932L58.4946 541.569L60.4672 543.987L61.7387 547.013L63.9457 551.934L65.8442 558.013L65.5707 560.6L67.0571 562.507L68.8832 567.36L70.2739 570.868L75.1508 577.405L75.7133 577.048L79.2211 580.425L83.77 586.587L85.2192 588.638L88.4067 593.05L92.8637 601.706L93.4633 604.35L95.0786 605.616L96.0356 609.27L98.2426 619.727L100.789 622.772L100.829 625.997L97.1626 626.429L98.6508 629.104L107.29 637.302L107.538 641.827L111.284 642.13L117.723 648.839L126.469 658.091L129.159 662.501L128.399 664.206L134.579 667.384L145.399 676.876L153.815 682.093L162.528 690.671L170.352 699.514L175.014 703.192L180.139 706.1L182.436 708.491L185.02 714.491L186.315 717.298L184.848 722.153L182.237 722.897L174.975 723.245L172.247 724.985L168.829 725.389L167.432 724.618L166.602 726.054L169.077 732.102L169.442 735.7L169.731 737.214L168.543 737.259L169.508 740.278L166.137 740.251L166.721 741.655C237.584 794.897 323.733 823.858 412.368 824.235C452.633 824.167 492.67 818.194 531.202 806.509L528.598 806.684L526.649 806.599H526.643L523.805 806.198L520.08 806.368L518.403 805.95L517.957 804.837L517.075 804.057L516.276 801.913L517.092 799.702L516.69 798.811L514.481 798.544L511.701 797.548L509.028 795.62L507.965 794.464L503.09 793.19L503.082 791.345L502.76 789.839L504.115 787.306L506.877 784.304L507.422 783.007L510.022 779.917L511.822 778.349L516.016 775.509L518.389 773.636L519.397 771.104L519.25 769.329L517.322 768.591L515.69 766.936L514.176 765.229L514.608 764.429L516.848 762.583L514.998 759.561L513.731 757.397L510.367 755.739L511.068 754.87L510.147 753.884L508.399 751.343L502.764 748.239L495.604 745.409L490.969 742.743L486.692 739.016L486.926 737.546L488.486 735.919L490.215 732.444L491.635 728.899L490.301 728.429L492.693 722.895L493.674 719.036L490.848 716.35L487.592 716.042L486.106 714.102L484.272 713.677L484.324 712.323L476.969 715.091L474.258 715.182L471.529 716.6L465.807 717.149L461.924 714.515L459.506 711.186L454.379 708.368L448.994 708.868L442.66 709.306L436.727 710.233L430.943 711.569L419.658 714.809L415.651 716.556L409.143 718.007L402.707 716.573L399.422 716.569L394.391 715.487L389.768 715.387L381.223 715.846L376.209 716.958L369.065 718.229L367.678 717.993L365.793 717.88L358.428 714.885L351.992 710.46L345.977 707.024L341.274 703.167L339.371 702.532L334.338 699.762L330.758 696.466L329.596 694.389L328.891 690.409L325.953 686.798L323.334 684.266L321.584 683.268L319.901 681.901L319.238 679.393L318.289 678.022L316.324 676.766L312.774 673.798L309.895 672.864L308.418 671.01L308.514 670.186L306.504 668.593L306.151 667.325L305.346 662.848L306.408 660.555L303.959 655.581L300.76 652.823L303.824 652.397L307.443 649.079L309.305 646.452L309 643.202L311.135 640.706L312.477 635.325L312.305 629.286L311.803 626.135L312.768 623.257L311.367 620.022L308.201 616.657L308.772 614.132L309.402 611.348L312.086 610.19L314.57 607.395L314.389 605.2L317.106 601.229L321.133 597.919L323.406 597.305L325.504 593.911L326.026 590.534L328.752 586.975L333.227 585.348L337.908 579.364L341.443 577.266L347.361 577.382L352.701 573.532L355.984 572.153L361.617 567.192L360.695 558.694L363.459 553.141L364.537 549.657L368.752 545.442L374.981 542.846L379.58 540.344L383.901 533.471L385.94 529.329L390.26 529.581L393.717 532.671L399.344 532.364L405.451 533.999L408.024 534.089L413.692 530.286L420.031 528.973L423.662 525.999L429.203 523.655L438.971 521.843L448.481 520.497L451.465 521.249L456.645 517.929L462.744 517.136L465.233 518.444L469.092 517.479L474.938 513.743L478.996 513.923L479.293 517.446L483.744 514.063L484.334 515.313L481.967 519.198L482.356 522.386L484.572 523.737L484.612 529.796L481.219 533.891L482.799 537.409L485.856 536.991L487.762 539.944L490.151 540.583L497.408 541.534L499.795 540.438L504.877 540.487L513.151 541.651L516.916 546.872L522.43 546.788L531.215 547.257L538.088 548.663L540.586 546.096L542.729 542.219L540.315 537.63L541.41 533.864L544.787 529.452L548.438 527.249L556.295 525.919L558.918 528.134L560.99 527.387L563.037 527.823L568.713 526.434L570.623 528.024L577.867 524.887L583.561 524.3L589.453 523.747L592.227 523.571L595.705 519.606L597.301 516.731L601.735 513.895L605.672 512.778L608.112 515.135L608.621 512.458L613.221 511.696L617.297 509.829L619.219 506.848L619.934 503.968L619.465 503.817L619.711 500.155L618.949 494.891L619.045 492.905L619.156 492.762L618.901 486.673L619.506 480.852V480.583L617.115 476.093L617.186 472.827L614.297 471.046L615.047 467.624L612.467 469.88L607.984 470.757L606.223 476.264L599.238 481.034L594.031 479.706L588.699 482.2L588.522 485.44L585.361 487.903L579.346 486.766L573.893 489.407L568.781 484.22L563.932 482.151L564.678 475.975L560.506 474.155L563.785 465.477L571.053 461.85L571.178 455.923L580.324 452.405L584.043 445.333L588.424 440.665L595.549 436.354L605.088 436.196L612.303 434.657L616.645 430.401L620.432 428.46L623.449 421.807L622.613 418.772L619.354 415.362L615.869 414.78L613.32 415.647L610.865 414.792L603.057 413.054L597.305 413.71L591.969 412.233L594.336 409.38L594.783 402.03L591.307 400.979L595.484 394.694L594.623 393.409L591.82 396.69L589.059 399.188L587.572 402.864L584.086 405.481L581.848 409.917L584.029 413.741L586.764 414.085L590.666 411.177L591.024 413.919L587.129 417.735L583.248 424.731L580.307 424.749L579.844 421.204L574.404 421.846L574.586 420.202L577.568 415.852L575.688 415.046L568.508 416.903L567.137 414.626L563.629 417.429L563.61 421.831L562.303 428.335L563.096 429.983L561.541 432.427L559.957 432.444L561.817 441.011L560.496 444.843L560.567 450.35L563.449 453.448L564.932 455.735L569.807 455.958L569.551 457.973L564.067 460.919L562.744 463.874L559.918 469.196L557.354 466.751L556.963 465.348L553.942 466.388L551.192 466.788L545.776 470.86L550.371 473.304L548.172 475.378L545.381 476.442L541.711 473.954L541.197 475.778L543.483 479.393L546.936 481.606L545.438 483.79L549.176 485.815L552.278 486.786L553.455 490.518L548.166 490.559L550.658 493.391L547.535 495.317L551.145 500.464L547.649 501.831L542.526 500.464L539.147 495.778L537.063 491.61L534.219 489.184L530.563 486.19L529.717 484.368L528.717 484.173L528.233 482.71L524.801 481.315L523.541 478.196L522.793 473.391L522.94 471.048L521.815 470.229L520.627 470.022L518.653 468.204L516.145 467.479L510.815 466.274L507.33 464.577L502.289 463.714L496.987 459.622L497.875 458.854L494.996 456.458L494.406 454.112L491.024 453.743L490.125 457.122L488.203 455.091L487.834 452.622L487.987 452.47L488.945 451.587L484.86 451.413L481.33 454.745L482.231 458.196L481.977 460.329L484.262 463.585L489.649 466.124L493.317 471.346L500.149 475.628L504.17 474.583L505.75 475.794L504.598 477.546L509.77 478.839L514.033 479.888L519.307 482.198L520.147 483.321L519.752 486.057L516.115 483.688L511.33 483.807L510.078 488.852L514.451 490.374L514.598 494.122L512.451 495.13L510.781 501.759L508.617 502.864L508.227 500.763L508.594 496.804L509.463 495.038L506.565 491.579L504.24 488.505L501.869 488.179L499.725 485.559L496.094 485.083L493.299 482.794L489.322 483.179L484.674 480.856L479.147 477.2L474.987 473.776L472.338 467.065L469.678 466.665L465.207 464.973L462.985 466.28L460.424 469.995L458.34 470.802L454.061 475.403L443.563 474.542L436.072 477.466L435.721 481.8L436.248 485.917L431.373 490.966L424.445 492.79L424.031 495.194L420.746 499.229L418.717 505.034L420.994 509.009L417.776 512.221L416.608 516.807L412.281 518.251L408.192 523.63L400.813 523.645L395.278 523.358L391.559 525.677L389.233 528.202L386.393 527.477L384.336 525.005L382.889 520.897L377.569 519.436L375.139 521.059L372.166 519.817L369.141 520.303L370.43 514.934L370.227 510.587L367.754 509.688L366.635 506.893L367.473 502.346L369.897 500.018L370.522 497.208L372.008 493.073L372.129 490.063L371.258 487.415L371.225 485.001L371.922 479.968L370.039 476.663L377.863 472.218L384.166 473.993L391.199 474.356L396.742 475.809L401.119 475.557L409.623 475.889L412.319 471.585L413.186 457.261L408.024 449.706L404.434 446.02L397.057 443.052L396.756 437.766L402.985 436.37L410.992 438.294L409.479 430.104L413.934 433.182L424.678 427.227L425.789 421.233L429.684 419.555L433.215 417.886L435.383 415.727L438.33 404.77L443.901 401.157L447.469 400.946L448.11 399.321L451.592 398.466L452.6 399.938L454.944 395.989L453.586 393.444L452.789 389.407L450.551 385.669L449.365 378.362L449.733 376.339L450.522 374.034L453.854 373.071L454.865 370.889L457.561 368.364L458.108 372.042L457.391 374.557L458.215 376.47L460.529 377.175L460.069 380.03L458.754 379.462L456.776 385.077L458.463 388.376L459.004 391.122L463.455 392.063L463.875 394.602L467.824 392.475L469.735 390.069L474.951 391.887L477.399 393.706L479.713 390.981L485.195 386.157L489.541 382.436L493.805 382.479L494.608 384.087L498.428 383.014L498.356 379.694L502.916 375.723L500.147 370.227L498.502 365.026L498.772 360.13L501.272 356.628L506.002 360.657L508.805 359.44L507.416 354.013L506.209 349.899L505.295 351.233L502.174 349.671L500.358 345.911L503.807 342.427L507.514 339.788L511.516 339.378L514.736 337.706L516.563 332.444L511.799 330.874L506.373 333.893L501.807 338.622L497.051 342.055L493.729 339.067L489.736 337.95L487.971 331.054L484.184 325.493L484.151 321.091L485.182 315.958L488.613 306.364L489.811 304.268L488.258 301.638L483.162 300.028L479.328 303.591L478.484 309.145L480.508 313.075L477.842 320.001L473.901 327.614L474.559 337.925L478.399 342.116L482.822 344.991L482.09 353.686L478.885 356.327L480.766 368.389L480.365 375.497L475.516 375.966L474.635 382.065L470.111 383.395L467.424 376.962L462.531 369.567L457.695 360.083L454.432 356.167L448.582 365.532L443.801 367.882L438.143 364.835L435.965 357.272L433.067 340.919L435.617 336.036L443.324 329.016L448.147 320.805L451.451 310.13L454.625 295.495L457.404 289.354L461.201 279.153L465.106 274.677L468.936 273.714L469.783 267.19L473.742 265.901L476.762 263.04L485.729 264.386L484.061 267.345L488.66 269.999L489.514 266.768L495.266 268.491L501.867 266.514L514.453 267.807L518.162 269.333L521.33 272.954L521.324 277.638L518.877 281.667L505.559 283.507L504.336 285.245L511.037 287.458L517.201 296.233L521.629 296.116L524.625 296.44L522.957 293.352L519.615 291.667L519.699 288.513L528.023 288.331L528.902 285.542L524.156 282.432L524.791 273.194L526.967 272.028L530.533 272.403L528.412 267.714L523.914 265.841L521.979 261.854L517.609 259.647L524.297 257.034L528.143 259.02L526.424 261.727L529.178 264.661L532.375 265.149L534.182 261.378L531.363 257.692L532.479 251.768L533.289 241.712L534.668 240.639L536.588 245.161L539.041 243.444L538.16 240.612L540.625 237.124L540.162 232.659L545.178 233.083L542.609 228.262L537.881 227.807L536.508 225.554L541.621 221.442L544.99 220.05L555.658 217.061L552.918 213.948L548.664 214.149L547.287 213.483L545.584 215.427L542.873 213.171L537.436 211.454L535.367 210.409L531.027 204.257L525.572 200.323L524.783 198.536L528.166 195.016L531.994 196.218L536.785 200.179L539.287 200.003L544.102 201.444L552.93 205.944L557.68 205.552L561.727 208.444L569.332 217.171L571.205 215.108L569.209 213.081L568.361 209.864L565.34 207.798L562.799 204.554L558.715 204.136L554.664 201.305L553.451 203.257L549.645 202.12L543.484 197.776L537.312 197.858L533.801 192.911L528.902 191.458L528.992 190.575L532.984 191.094L539.271 194.266L541.029 192.803L535.961 191.792L534.039 187.93L534.434 184.231L538.871 182.167L532.928 182.036L525.574 180.065L524.592 176.907L525.293 173.143L524.562 169.495L520.871 170.052L516.338 167.45L516.158 165.723L512.607 162.409L511.387 158.567L509.418 157.94L508.256 154.294L509.615 153.231L505.275 150.134L504.756 147.706L501.686 147.444L498.402 146.382L494.635 143.749L496.037 141.489L498.348 142.968L498.258 140.079L501.408 139.343L499.277 138.403L497.58 134.796L499.156 131.419L500.926 129.909L504.404 129.536L507.154 130.641L512.703 133.712L515.17 134.544L515.156 132.614L515.598 130.208L513.648 129.1L517.246 127.643L515.226 127.29L512.783 125.175L510.611 120.405L513.142 119.333L509.195 113.202L504.787 114.579L503.211 111.456L501.164 109.423L501.832 106.184L504.543 104.136L507.588 103.999L509.789 100.559L509.34 97.4793L502.582 98.655L502.18 95.489L498.066 94.0437L496.139 90.8757L493.599 90.782L491.295 88.5086L488.57 92.0086L484.471 91.8992L470.471 81.2742L470.713 78.5105L467.582 73.7156L458.283 71.4109L454.248 69.5222L453.262 67.4949L455.115 64.9168L452.738 63.1394L449.092 63.116L444.728 62.2996L440.379 60.7117L435.519 60.3836L432.068 56.489L428.56 57.323L430.029 59.9558L428.516 61.5359L420.836 59.7937L415.627 59.7781L408.43 57.8445L404.764 56.2449L405.183 63.491H405.182V63.493L407.787 63.241L408.234 64.5047L405.338 66.2352L405.336 66.2372L405.055 66.4129L403.111 66.4715L399.654 65.4832L399.783 64.9247L402.101 63.8426L405.181 63.4911L404.762 56.245H404.764V56.243L398.01 53.6727L390.18 50.6395L389.922 48.4305L387.777 47.7625L389.062 50.2313L381.31 50.6277L374.557 48.2977L376.875 46.3816L381.605 45.3484L380.637 42.1414L381.662 41.3172L384.605 41.0691L387.267 41.9461L391.566 42.532L392.533 43.9246L395.678 44.2566L399.031 43.6238L400.789 44.741L400.281 46.0477L403.738 45.1004L402.269 43.5359L403.887 42.0574V42.0554L403.908 42.0378L407.818 40.5125L411.851 40.7566L409.037 39.0066L407.076 36.3875L405.531 35.5652L405.084 34.2937L405.914 33.4695L412.174 34.1179L421.812 32.1296L424.91 31.9519L430.619 30.2957L436.193 29.0457L437.887 27.9402L442.336 30.4402L452.469 29.6726L453.596 30.9343L457.599 30.4148L462.127 31.7L464.316 30.2585L470.267 28.8503L470.824 27.8699L466.943 26.4148L469.74 23.2605L473.412 23.9773L476.49 22.6296L475.545 21.3875L483.447 22.0925L486.914 20.3933L493.516 21.6414L496.73 20.3699L504.68 20.825L504.808 22.2898L503.437 25.0925L500.641 29.6667L495.658 31.7761L491.224 32.0417L489.996 32.991L483.916 31.825L475.029 33.0632L467.141 34.2039L459.666 35.0066L454.812 38.4734L458.889 39.0222L462.236 37.1101L472.75 36.1902L473.004 40.1648L482.103 41.6902L494.394 40.2937L493.129 37.9246L501.391 40.0496L506.883 41.8523L504.613 43.3035L509.232 45.7234L514.713 46.4539L523.863 51.4343L534.992 56.3503L552.15 59.3582L573.18 64.8406L568.787 61.2058L569.646 59.532L567.33 57.1902L563.363 56.3054L559.976 53.9285L558.961 49.7703L561.775 48.8621L568.006 49.6746L572.392 48.9968L579.461 49.1414L590.051 52.2937L593.662 53.0105L602.81 56.5007L611.908 60.3503L616.4 62.3464L623.496 66.4558L625.918 68.3386L626.535 69.991L634.058 74.4832L635.818 75.1785L636.978 76.3308L639.766 77.9402L642.064 79.1492L644.496 79.6042L647.156 81.4851L648.426 82.2292L650.836 83.7585L653.805 86.157L656.305 87.9089L657.961 88.4851L658.767 89.0085L657.92 87.821L657.394 86.3699L658.176 84.7839L659.365 84.7292L663.039 86.2195L663.742 86.6824C645.926 72.7487 626.992 60.3062 607.134 49.4812L604.901 49.4207L601.231 48.0535L596.093 45.2175L597.257 44.4714C539.897 15.6018 476.583 0.544127 412.368 0.500732V0.500732ZM663.743 86.6824C668.338 90.5217 672.849 94.4608 677.272 98.4968L678.35 98.864L674.7 95.3992L670.343 91.8503L666.241 88.325L663.743 86.6824ZM677.272 98.4968L677.003 98.405L673.858 96.5691L671.956 96.6589L668.706 93.7429L668.216 95.0496L669.251 96.5378L670.335 97.2253L671.645 98.3972L671.102 98.2683L671.667 99.0828L672.014 99.8425L669.497 98.2663L668.27 97.2703L667.911 97.3562L665.085 95.7878L664.706 95.823L666.262 97.7605L666.819 99.114L672.434 104.51L676.538 107.841L680.923 112.241L677.512 109.593L676.653 109.827L671.608 106.038L671.167 107.29L675.178 110.927L681.257 116.093L685.591 119.399L688.569 123.241L691.841 125.989L693.003 125.069L691.27 122.145L692.88 122.776L691.614 120.178L685.518 114.682L684.177 111.913L682.198 109.505L683.565 109.708L689.134 115.585L692.561 118.325L697.397 123.063L701.477 126.438L700.046 123.157L702.139 123.491L703.165 122.866L703.333 121.686L705.618 123.251C696.551 114.572 687.093 106.312 677.272 98.4968V98.4968ZM355.694 32.2371L358.251 32.5046L355.102 33.6824L352.208 34.0593L351.204 33.1433L353.083 32.2566L355.694 32.2371ZM572.473 34.9773L579.776 38.3796L586.387 40.5359L591.28 44.3542L596.807 45.9441L601.63 48.866L599.225 48.9812L594.817 47.5867L590.167 44.8777L584.792 44.2175L581.204 43.6433L579.411 40.6687L577.102 38.8289L574.659 37.1785L570.409 35.6628L572.473 34.9773ZM369.288 38.9832L372.022 39.2273L373.471 39.5867L376.218 38.9832L377.079 39.1453L377.321 40.3406L375.147 40.0359L373.307 40.6589L370.401 40.2722L367.063 40.4285L367.165 40.0515L369.288 38.9832ZM305.661 39.0359L307.509 39.7078L305.399 41.6941L304.034 42.7664L301.598 43.6179L299.233 43.6785L300.764 41.489L303.139 39.3015L305.661 39.0359ZM559.956 39.28L564.745 42.6414L571.686 43.1238L570.907 40.4597L573.108 40.2488L574.393 42.1921L579.425 43.4539L577.577 44.1531L574.075 44.3035L571.071 45.1355L567.743 45.1062L563.2 46.0261L562.042 48.1277L557.052 49.3015L552.253 47.9617L552.042 49.2937L550.03 48.5925L551.372 47.2898L553.352 45.5183L556.669 44.5574L558.374 42.78L559.956 39.28ZM225.776 77.8835L227.012 78.1863L225.126 79.3191L222.841 81.821L218.6 80.6394L212.589 82.7878L213.725 81.7038L217.45 80.1921L220.522 79.3601L223.323 78.1648L225.776 77.8835ZM477.63 89.946L480.251 91.3777L483.2 93.7703L483.259 94.1101L480.038 94.3953L477.626 93.4929L476.802 90.9187L477.63 89.946ZM462.065 90.1296L464.417 91.6433L465.983 94.4968L464.411 95.4812L462.034 93.5456L458.839 90.7996L462.065 90.1296ZM197.657 90.5261L198.464 90.7429L194.643 93.8816L192.321 95.7585L189.382 98.6394L186.907 99.8132L183.442 101.563L178.993 104.942L175.393 106.616L176.03 105.079L182.382 99.5788L184.79 98.4714L188.77 95.5671L190.544 94.9226L194.155 91.7761L197.657 90.5261ZM470.192 94.7253L475.759 98.0496L479.264 98.8542L479.184 102.774L475.294 104.413L472.678 103.843L469.247 101.454L466.11 96.696L470.192 94.7253ZM302.585 112.749L304.032 113.794L307.884 116.323L310.768 118.641L315.419 118.409L312.917 123.145L310.298 124.774L307.671 128.262L305.02 129.323L301.454 130.477L300.928 128.337L298.86 123.823L295.884 121.046L293.346 120.534L293.454 115.655L296.665 115.436L302.585 112.749ZM293.163 122.425L296.901 124.596L298.694 126.114L300.165 130.811L298.1 132.21L295.51 131.052L295.696 134.786L291.391 136.743L293.966 138.798L291.21 140.163L284.196 141.329L286.628 142.249L293.858 141.284L294.323 142.727L292.708 144.302L289.415 146.126L282.553 147.3L277.669 148.005L273.536 151.296L269.589 155.009L266.677 155.089L266.862 151.887L264.001 153.384L261.719 152.927L263.7 149.161L266.499 145.624L266.858 143.335L266.016 139.641L267.384 133.749L268.212 131.085L271.7 130.218L274.76 127.774L274.987 126.05L281.178 124.378L281.135 125.643L280.653 128.516L279.044 131.024L278.997 133.468L282.198 130.13L283.757 126.325L285.346 123.886L288.167 123.337L288.311 127.598L289.739 125.009L293.163 122.425ZM324.233 124.294L327.35 127.591L329.821 130.981L328.661 132.669L328.7 134.415L323.843 133.227L322.161 131.839L322.536 130.641L321.309 127.743L321.72 125.542L324.233 124.294ZM314.325 129.341L319.499 132.343L320.645 133.852L316.628 137.044L311.645 138.913L310.157 141.257L317.331 139.971L319.292 141.391L318.005 142.62L314.622 142.792L312.024 143.143L312.739 144.413L311.983 145.809L308.567 145.928L305.618 144.956L306.344 140.03L305.069 136.12L305.987 133.909L308.192 134.018L309.684 137.288L312.089 130.989L314.325 129.341ZM327.659 137.532L329.319 138.796L329.249 140.524L327.52 141.973L325.663 141.344L324.698 138.905L327.659 137.532ZM331.593 139.385L332.532 139.561L334.028 140.968L333.473 141.485L331.524 142.688L330.764 141.19L331.593 139.385ZM487.302 143.331L490.186 143.341L494.893 149.632L485.221 148.02L484.184 147.224L484.384 146.409L487.302 143.331ZM295.507 143.686L296.268 144.245L295.874 146.356L294.032 147.567L289.993 146.161L295.507 143.686ZM332.073 147.475L334.747 147.587L333.219 149.589L329.997 152.452L326.493 153.333L323.481 153.843L324.632 151.897L327.329 150.02L328.272 147.509L330.022 148.694L332.073 147.475ZM488.069 149.296L489.512 151.661L488.04 154.7L485.573 156.385L480.557 156.944L479.259 158.196L474.155 155.594L472.266 153.688L475.489 151.872L481.735 149.356L488.069 149.296ZM313.278 150.315L312.737 151.757L314.718 153.7L314.01 155.573L314.917 155.626L311.53 156.842L307.934 157.143L302.837 156.88L302.507 154.483L303.911 152.846L307.946 152.731L307.917 150.434L313.278 150.315ZM289.169 150.973L287.594 154.45L292.44 152.352L295.382 154.065L293.598 156.069L294.071 158.85L292.012 159.481L288.895 158.29L285.622 161.196L279.469 161.692L277.194 159.046L278.034 157.221L280.85 155.721L287.001 151.036L289.169 150.973ZM330.081 154.864L329.606 156.305L329.063 156.977L326.475 158.491L323.942 158.364L322.667 156.69L324.43 155.637L327.147 155.04L330.081 154.864ZM338.942 156.565L342.044 157.096L344.169 157.634L344.608 158.532L346.27 158.046L346.559 160.057L342.741 161.583L341.266 163.346L340.028 165.114L335.409 166.7L333.268 168.391L330.983 167.321L325.477 166.171L324.878 164.178L325.784 161.643L328.719 160.12L331.298 159.903L333.163 160.575L333.202 158.643L335.659 157.346L338.942 156.565ZM314.899 157.421L317.731 157.7L317.061 160.374L314.721 162.065L314.696 164.651L312.395 166.159L309.745 166.28L308.208 168.155L306.587 169.368L306.423 171.358L306.055 173.579L307.884 175.468L308.989 178.163L309.003 180.573L306.788 182.909L304.038 184.177L301.977 183.862L299.968 182.093L300.405 179.899L298.639 175.813L298.182 172.678L298.882 170.014L301.063 165.577L304.917 164.481L308.401 163.809L311.518 162.024L312.563 159.137L314.899 157.421ZM322.438 157.751L322.145 160.194L320.79 161.186L319.987 161.126L319.811 160.581L320.432 158.218L322.438 157.751ZM264.95 157.8L266.749 159.29L269.477 160.276L267.292 162.624L265.942 164.003L264.594 164.815L261.899 166.503L259.647 165.643L261.999 162.528L261.489 160.969L264.95 157.8ZM302.087 158.911L305.149 159.387L306.87 161.249L304.341 162.809L302.102 163.647L299.428 163.2L300.094 160.926L302.087 158.911ZM351.124 160.344L352.52 161.399L352.802 162.294L354.096 163.661L356.897 164.339L356.667 165.313L354.821 166.509L358.764 166.27L360.104 166.942L361.202 167.973L362.135 169.925L361.514 170.503L363.43 172.009L363.641 173.551L363.93 175.098L364.397 177.012L364.446 178.76L363.555 180.821L361.874 181.708L357.979 181.479L355.571 180.344L353.714 180.333L354.745 181.987L349.7 181.989L347.091 181.44L340.889 182.2L338.878 180.653L337.233 180.548L335.354 177.729L334.997 179.446L333.514 179.151L330.468 181.235L327.745 181.014L325.212 179.899L322.346 180.225L319.794 179.173L318.278 179.841L319.177 181.905L317.514 182.507L312.397 180.356L313.53 176.3L311.815 172.626L312.44 170.43L312.622 167.815L315.995 167.054L317.757 169.136L322.802 167.563L323.362 168.204L320.719 172.087L325.01 169.462L326.171 167.313L328.999 167.729L330.928 169.352L333.436 169.139L336.009 167.126L339.624 166.046L339.688 168.755L339.059 169.692L341.936 170.583L342.337 168.292L341.444 165.091L343.745 163.093L346.604 161.987L348.678 160.757L351.124 160.344ZM291.602 161.305L294.479 161.78L296.268 163.1L295.911 166.415L294.245 169.751L288.026 168.475L286.712 166.696L281.626 165.698L282.014 163.637L288.163 161.718L291.602 161.305ZM84.5046 168.325L83.4714 168.653L81.4148 170.657L78.6296 173.106L76.4246 175.803L72.3914 181.167L71.239 182.604L70.6531 183.522L69.655 184.659C69.4836 184.887 69.3123 185.116 69.1414 185.344L68.8738 185.928L67.7859 187.155C64.4691 192.606 61.2794 198.134 58.2195 203.733L59.2781 202.014L62.0046 198.671L63.3894 195.841L66.3328 191.499L68.946 187.858L70.075 186.753L73.7996 182.102L77.2175 178.35L78.5203 177.378L81.5593 173.02L82.1843 171.62L84.5046 168.325ZM289.268 172.55L292.21 173.61L294.491 177.317L289.872 177.284L285.743 179.766L291.518 179.764L295.094 183.007L288.684 188.153L284.184 189.471L287.063 192.143L290.218 192.69L288.108 197.792L285.868 201.54L283.1 203.098L285.946 205.604L282.68 209.512L282.327 215.137L280.655 218.155L275.852 223.401L271.028 221.692L269.6 228.733L270.186 232.686L266.608 239.329L268.409 242.712L263.917 245.173L254.665 246.571L255.444 242.122L259.13 234.86L256.811 232.639L253.19 234.614L251.003 239.225L250.075 244.108L249.087 246.139L244.28 251.841L239.632 254.155L239.35 250.024L240.71 240.85L237.462 247.684L235.413 252.714L233.635 254.598L232.175 246.298L232.968 238.749L234.548 233.962L236.653 233.755L238.245 228.325L239.874 223.192L238.075 224.223L234.624 217.811L236.175 214.692L241.35 213.967L242.928 218.27L245.54 222.555L247.481 220.581L250.94 219.663L258.268 219.104L260.817 217.018L262.657 215.073L264.512 210.389L265.249 205.28L267.341 205.792L270.712 201.893L270.548 200.036L272.352 197.589L270.1 197.356L268.339 194.165L268.458 186.522L269.911 181.803L270.659 178.393L272.962 176.196L276.208 177.372L276.081 174.737L283.022 172.589L289.268 172.55ZM357.809 183.21L360.663 183.942L363.278 185.387L365.118 187.288L364.042 189.259L368.753 188.493L368.36 191.52L368.948 192.682L368.885 195.397L369.819 191.52L372.085 189.618L377.208 188.436L379.315 190.184L381.774 188.837L384.512 189.637L389.716 192.827H389.718L392.602 199.051L390.026 200.868L386.487 199.989L381.491 198.626L381.29 199.815L384.788 200.497L386.544 203.499L389.196 202.28L389.083 204.649L386.501 207.794L390.022 206.313L395.667 205.081L398.391 206.803L398.419 209.557L392.782 213.206L391.71 214.501L387.604 214.682L390.249 215.643L387.333 219.835L384.897 223.608L382.528 230.587L382.989 235.167L380.466 234.825L377.163 236.116L378.94 240.278L377.514 245.813L375.432 245.915L375.911 252.059L371.612 251.417L372.87 254.637L371.45 256.749L368.337 256.971L365.62 256.165L366.417 261.274L365.37 264.163L362.374 260.243L360.624 261.61L362.739 264.112L364.014 268.915L362.958 274.425L358.471 274.475L357.747 271.423L356.622 266.829L355.505 271.438L351.479 273.915L357.313 276.208L360.343 277.536L351.885 281.241L343.212 284.005L335.177 283.352L332.567 282.221L328.827 283.501L321.803 288.446L314.018 290.038L312.186 289.366L308.03 289.018L303.667 288.354L299.096 290.747L296.19 294.893L292.245 297.995L284.821 299.995L282.577 305.315L277.962 309.417L272.528 314.257L268.495 311.901L268.227 304.28L263.294 300.266L263.51 295.245L266.593 288.544L268.893 278.458L271.106 274.052L275.368 269.118L277.507 261.846L281.991 258.782L282.669 255.843L290.497 251.712L294.975 252.276L297.792 250.772L302.149 247.128L298.456 247.178L296.798 247.075L294.604 246.36L294.438 242.821L298.024 239.471L301.487 237.536L302.925 238.846L304.63 243.145L305.376 237.534L305.934 234.606L303.774 233.825L304.007 231.452L310.647 228.729L311.927 226.188L314.825 222.007L319.499 215.809L320.413 212.579L322.878 210.846L323.841 205.278L322.468 202.458L320.1 199.331L317.86 196.516L319.149 194.028L322.225 189.966L325.858 192.116L327.505 194.257L326.579 188.54L328.139 184.817L330.817 183.921L335.913 186.55L341.087 188.641L343.635 187.798L344.497 184.202L347.53 183.745L353.776 184.319L355.221 185.063L357.809 183.21ZM295.237 185.485L295.884 186.091L296.173 189.956L293.389 194.159L291.596 195.069L291.198 193.249L290.782 191.423L289.35 189.952L289.628 189.319L292.764 186.249L295.237 185.485ZM497.895 189.516L500.907 189.794L502.589 191.557L503.528 197.692L504.218 203.325L507.309 211.048L511.647 217.032L515.532 223.331L520.6 226.608L527.739 227.079L527.528 228.417L522.54 233.065L519.68 231.466L515.739 232.944L512.555 230.651L512.702 228.212L509.596 225.792L507.094 219.325L505.339 220.022L502.833 213.165L499.876 211.637L498.85 206.741L497.669 200.286L498.907 195.561L497.608 192.28L497.895 189.516ZM463.571 192.628L464.173 193.546L463.934 195.11L463.677 196.108L464.475 196.925L464.444 198.538L462.284 198.282L461.061 196.473L459.128 197.889L459.706 195.719L460.788 194.602L462.425 195.626L461.528 194.176L461.284 192.803L463.571 192.628ZM239.973 194.073L239.677 195.968L236.864 197.487L238.065 198.323L236.593 200.378L234.866 203.923L233.454 207.567L230.45 209.137L231.384 210.735L229.719 213.487L227.153 212.198L227.805 207.581L230.417 204.936L226.534 203.882L222.637 201.587L226.284 199.223L225.257 196.009L228.708 197.016L233.868 195.434L239.973 194.073ZM219.434 207.175L222.731 207.843L223.405 211.417L222.163 211.925L218.024 210.44L217.819 208.501L219.434 207.175ZM260.428 207.639L261.987 209.098L260.796 211.573L258.052 212.968L257.079 213.175L254.671 212.735L253.507 210.477L256.493 208.448L260.428 207.639ZM437.971 209.469L441.464 209.874L444.774 210.979L444.936 214.8L441.864 216.846L437.811 217.077L436.866 215.481L435.11 215.899L432.716 213.471L435.475 210.741L437.751 211.63L437.971 209.469ZM432.901 215.229L435.247 216.936L441.319 220.155L439.083 223.612L440.153 228.384L439.339 229.923L440.548 235.317L438.741 236.063L434.161 232.983L434.825 230.419L432.071 229.079L427.87 224.264L425.616 219.491L428.401 216.587L429.737 218.624L431.487 218.124L431.227 215.897L432.901 215.229ZM773.989 215.368L777.876 222.772L778.302 223.577C776.895 220.824 775.457 218.088 773.989 215.368V215.368ZM219.212 217.942L221.362 218.026L221.514 219.161L220.415 220.471L216.846 221.102L217.059 219.655L218.747 218.032L219.212 217.942ZM444.51 222.551L446.167 224.608L448.827 225.202L446.946 228.843L443.766 228.298L444.026 226.395L442.307 224.729L444.51 222.551ZM802.032 287.231L803.759 292.813L806.253 301.901L806.553 304.622L806.572 307.071L803.751 300.167L801.855 297.548L799.722 297.19L798.773 295.096L798.826 297.739L797.173 298.307L795.964 297.764L794.644 296.053L793.429 295.165L791.992 295.085L792.185 299.801L793.306 300.962L794.908 304.86L794.456 306.311L794.978 307.821L794.732 308.889L794.538 310.589L795.538 312.837V316.419L796.019 323.866L797.99 326.686L799.404 332.036L800.656 342.659L802.929 353.786L803.925 360.622L804.683 368.93L805.638 370.962L805.769 374.78L805.736 381.305L805.412 384.102L806.588 389.153L809.125 393.823L810.558 397.243L811.619 403.856L813.984 411.509L813.5 414.622L813.933 420.602L814.66 420.382L813.918 426.766L814.224 431.721L813.994 435.266L811.72 436.323L809.388 432.524L807.474 430.04L806.263 429.803L803.978 428.305L801.533 423.899L800.162 421.956L796.062 420.491L791.367 413.684L787.98 409.292L785.117 403.62L782.433 400.253L781.183 410.561L779.47 413.612L773.65 414.467L773.744 410.317L772.076 409.925L767.195 411.69L764.814 414.081L762.111 412.046L758.088 412.073L753.976 421.837L749.629 429.626L745.98 436.928L739.447 444.055L735.357 447.809L731.303 452.188L726.496 447.614L724.387 448.77L722.258 453.055L720.037 459.993L714.715 463.411L708.889 463.454L704.473 465.852L699.305 463.311L692.695 458.811L691.066 461.821L687.627 462.419L687.242 466.057L684.717 468.05L686.777 469.753L687.037 471.388L690.377 474.401L694.244 477.712L696.83 477.042L698.432 478.315L702.244 477.905L703.537 479.94L703.975 482.184L705.318 483.518L707.16 483.88L708.494 485.128L709.685 485.848L707.641 482.139L707.391 478.149L708.185 476.432L710.162 476.893L711.699 480.014L712.291 484.126L713.957 485.407L714.539 484.391L715.34 485.721L718 481.544L721.209 478.138L723.539 475.68L724.363 469.089L725.379 462.419L725.947 456.38L726.021 453.3L726.681 453.218L727.48 455.817L727.517 457.35L730.068 460.927L733.369 462.522L736.189 461.911L738.978 459.261L741.384 457.497L744.283 458.374L745.968 458.831L747.422 457.809L747.959 458.962L748.214 463.718L748.353 465.903L747.707 469.516L747.998 474.776L746.349 476.628L746.158 478.821L746.689 482.177L748.501 485.032L748.426 486.102L746.81 488.239L745.338 493.067L745.933 496.022L745.505 498.171L743.207 501.011L742.218 504.112L742.974 506.169L741.64 509.823L739.357 511.864L737.338 516.649L735.605 519.03L733.146 523.673L733.085 526.839L733.532 528.704L730.052 535.325L723.894 544.757L720.923 552.282L719.023 554.458L717.585 555.434L715.462 560.065L712.755 563.749L708.874 567.516L707.743 568.854L707.021 571.126L705.849 572.581L705.402 574.53L702.972 576.434L701.566 578.432L698.089 580.948L696.122 578.942L695.611 575.964L694.433 575.057L692.517 571.915L690.542 570.848L691.476 569.807L690.343 567.764L690.677 566.261L689.841 564.087L688.579 562.286L686.64 561.813L685.659 559.94L682.542 559.944L678.568 557.331L675.837 553.856L671.218 552.536L668.685 553.22L663.697 550.179L661.89 546.62L661.036 543.073L656.081 538.649L652.966 537.97L649.824 538.569L647.054 536.294L646.896 534.786L644.47 532.632L642.542 532.255L639.074 529.077L634.341 526.159L630.333 523.585L627.792 525.128L627.464 521.321L626.96 519.058L626.743 516.251L626.267 515.468L625.693 518.763L626.156 524.011L625.798 527.991L624.935 529.747L622.562 528.772L619.325 527.366L612.732 520.579L612.382 521.429L616.656 526.761L621.843 531.13L628.79 538.3L631.747 540.433L634.482 542.808L641.208 546.524L640.474 548.185L641.783 551.893L649.462 553.311L650.732 553.911L654.062 558.466L653.204 560.243L655.601 565.612L659.347 571.079L661.726 571.134L665.15 571.268L669.833 575.585L672.509 579.597L676.009 580.226L684.261 580.179L687.796 581.077L691.23 582.016L693.206 582.591L696.015 582.22L697.542 582.888L697.837 585.157L695.22 588.657L697.663 588.36L699.48 588.003L700.868 589.327L703.511 589.626L705.962 587.614L710.296 582.427L715.365 577.259L719.152 571.94L721.365 569.475L722.794 567.011L725.327 564.354L726.734 562.854L728.609 560.077L730.816 557.222L732.462 553.388L734.083 551.675L734.509 552.964L734.782 556.296L735.374 558.901L734.843 561.647L734.673 568.257L733.519 575.886L731.702 584.829L728.675 595.632L725.236 604.649L720.12 616.073L715.452 624.044L708.163 634.788L703.474 642.003L697.781 651.731L696.521 654.931L695.302 656.843L691.534 661.3L690.136 664.032L688.115 665.792L687.179 669.29L685.329 672.192L684.05 675.665L681.74 678.528L678.679 685.179L678.714 687.179L681.993 686.192L682.003 687.083L680.144 690.425L680.255 691.358L679.576 693.393L680.998 694.403L682.416 696.431L684.173 695.825L684.627 696.806L683.461 700.448L683.201 702.977L681.627 708.003L681.937 708.917L679.488 712.296L676.566 715.884L672.414 720.091L667.095 724.507L660.437 729.878L652.853 736.747L650.509 738.532L645.687 742.731L643.099 744.673L641.574 746.768L642.972 747.122L643.089 747.905L642.664 748.577L643.691 747.888L641.878 750.259L640.212 751.821L641.154 751.446L639.628 752.831L636.787 754.913L631.812 758.183L624.419 762.909L621.404 764.923L621.107 765.47L622.351 764.847L620.923 766.069L618.488 767.893C640.302 755.496 660.938 741.131 680.138 724.977L680.019 724.78L681.582 722.903L681.556 722.261L682.535 720.782L684.755 718.226L687.257 716.003L687.89 715.101L691.525 711.169L693.078 709.026L692.794 708.581L692.943 707.491L694.031 705.065L696.572 701.983L698.162 699.481L700.599 697.368L703.544 694.462L705.55 692.374L707.621 690.526L711.086 686.317L715.722 680.825L717.773 677.862L717.724 676.991L719.49 675.585L722.865 670.815L723.695 668.632L725.708 665.602L726.74 665.596L727.376 665.928L727.595 667.141L726.611 670.542L727.027 670.971L725.869 672.999L724.654 674.737L724.097 674.29L722.832 676.081L722.488 677.665L721.415 679.409L719.841 681.331L718.124 684.249L714.335 689.462L709.585 695.548L706.482 699.243C781.608 622.61 823.857 519.682 824.235 412.368C824.217 372.714 818.472 333.27 807.178 295.259L807.141 295.272L805.431 292.231L803.233 288.165L802.032 287.231ZM347.704 302.126L352.173 302.389L354.995 308.177L360.366 305.571L363.37 308.335L368.885 305.663L373.44 307.036L371.835 311.391L374.2 316.702L369.202 321.327L359.219 324.266L356.221 324.907L352.454 322.885L344.723 318.368L348.641 316.233L343.481 311.018L349.001 311.27L349.548 309.253L344.233 305.87L347.704 302.126ZM171.993 314.708L173.153 315.434L174.852 320.962L175.223 326.382L174.421 327.407L173.186 325.907L171.723 320.087L171.993 314.708ZM11.3835 323.005C4.50164 352.305 0.852242 382.272 0.500732 412.368C0.608603 433.607 2.35927 454.807 5.73706 475.776L6.21753 475.479L7.09253 477.948L8.06909 477.475L8.99683 477.243L8.44214 474.124L9.09253 472.553L9.2605 467.163L9.82886 467.161L10.1921 462.444L9.93042 457.778L9.61792 454.62L9.77222 450.975L10.4578 451.124L10.1003 449.409L10.1375 446.87L9.6355 442.844L8.8855 440.708L8.2019 441.165L7.34058 440.057L6.99097 439.001L6.6394 439.397L6.80737 444.518L6.28979 443.573L5.948 443.436L5.24878 441.063L5.57104 437.395L5.23315 437.434L4.8562 435.323L4.99292 432.376L4.54956 429.776L4.35815 427.794L3.86011 425.391L3.60425 426.194L3.62964 424.87L3.27417 420.821L3.28787 418.735L3.59647 418.604L3.80545 417.407L3.79947 414.776L3.64709 411.682L3.48306 409.175L3.78189 407.497L3.77386 405.225L3.46918 406.884L3.01022 406.829L3.15668 404.305L3.02386 402.055L3.17233 400.387L3.56686 399.065L4.08636 398.407L4.06299 396.194L4.50244 396.62L4.68799 393.28L4.94971 388.87L5.31104 386.145L5.5376 382.397L5.97705 377.606L6.2876 377.546L6.1333 379.132L6.28955 379.243L6.70752 376.903L6.69382 374.827L6.2485 375.239L6.01022 371.938L6.02582 369.509L6.21332 366.331L6.15671 362.958L6.45554 360.444L6.66064 356.827L6.61761 353.268L6.94186 349.868L7.68793 345.106L9.84225 334.262L10.5903 330.046L11.35 324.45L11.3835 323.005ZM159.481 330.376L158.034 334.018L159.145 337.216L161.546 340.276L158.462 340.669L157.255 339.71L156.182 333.132L157.167 330.593L159.481 330.376ZM197.315 331.753L201.184 332.43L202.218 334.003L200.464 334.915L196.161 336.759L190.411 339.487L193.702 339.632L194.581 342.8L192.053 343.647L193.327 347.811L195.712 347.844L197.266 352.495L193.212 355.667L196.026 356.792L194.173 360.157L192.532 364.6L187.594 368.298L186.036 367.112L184.807 364.012L188.901 360.112L188.606 358.552L181.481 359.749L179.885 357.667L183.958 357.311L182.237 352.969L178.956 349.885L173.843 343.454L174.78 341.397L178.009 341.555L178.108 338.731L183.05 338.221L193.067 332.944L197.315 331.753ZM27.1433 352.962L28.4207 354.405L29.6003 353.971L30.6296 355.374L31.6707 357.194L32.7273 360.727L33.3035 361.505L34.1082 366.317L35.0652 370.448L35.3992 376.858L34.9753 380.587L36.696 384.903L36.6296 387.813L36.4089 395.053L36.3464 400.37L36.9773 402.007L37.5769 406.038L36.741 406.983L38.0652 410.977L38.6042 416.802L37.8015 417.302L36.157 414.471L34.7292 411.218L33.6296 407.266L30.8972 400.237L33.3855 401.153L33.3269 397.825L32.4304 394.153L32.6062 391.018L33.698 387.169L32.7468 384.401L32.1277 378.311L32.282 375.794L31.0691 368.278L31.196 365.579L32.3113 366.427L31.3562 361.069L29.2039 359.589L28.7703 357.466L27.9792 357.78L27.2468 355.641L27.1433 352.962ZM642.139 355.385L639.462 358.852L635.919 360.19L634.268 366.253L632.231 370.323L633.18 375.1L630.686 379.026L631.362 388.042L638.079 390.708L640.286 394.911L648.452 398.141L652.218 399.401L656.589 401.716L658.35 400.382L660.393 400.841L657.876 404.139L660.085 409.159L660.731 411.751L660.255 414.358L662.083 417.096L665.774 420.194L669.885 417.987L674.073 418.294L679.589 413.999L683.854 406.657L683.321 405.014L680.135 401.844L676.71 395.581L672.944 396.587L671.167 391.891L668.825 393.962L666.296 388.524L670.2 386.493L671.624 381.577L667.034 380.942L663.876 378.841L662.419 383.063L664.973 387.454L661.456 384.977L660.319 383.825L659.434 380.677L657.452 379.413L652.464 381.46L647.454 377.948L644.694 378.337L643.28 376.614L646.71 373.977L643.835 369.788L645.731 366.12L648.942 364.065L645.313 358.165L642.139 355.385ZM48.3308 362.184L49.2761 364.171L50.1921 367.596L49.4187 368.934L47.2605 364.21L48.3308 362.184ZM397.917 365.768L400.905 366.452L405.475 365.954L401.192 373.663L405.169 372.766L409.415 372.841L408.376 378.723L404.698 385.165L408.889 385.667L412.934 394.954L415.831 396.073L418.663 404.26L419.991 407.085L425.346 408.247L425.034 412.903L422.856 415.126L424.813 418.794L420.868 422.751L414.735 422.833L406.917 424.852L404.788 423.401L401.675 426.735L397.417 425.784L394.048 428.413L391.649 426.844L398.698 419.536L402.792 418.081L395.757 416.643L394.618 413.704L399.348 411.643L397.079 407.655L398.089 402.942L404.489 403.772L405.186 399.575L402.38 394.956L397.343 393.516L396.436 391.516L398.075 388.346L396.817 386.299L394.444 389.612L394.583 382.635L392.784 378.842L394.651 371.467L397.917 365.768ZM50.9246 366.981L50.7781 372.969L48.2898 375.385L48.3797 373.876L50.0301 371.555L50.5613 367.514L50.9246 366.981ZM44.6277 373.337L44.9792 375.04L43.1023 380.628L41.45 383.331L40.9089 382.309L42.1511 378.366L42.4109 375.135L44.6277 373.337ZM466.725 378.552L468.731 381.846L467.516 388.079L462.512 384.864L461.401 382.009L466.725 378.552ZM389.655 390.331L393.839 395.067L391.288 399.909L391.69 405.12L387.975 411.372L379.759 415.009L373.569 413.27L377.928 406.126L376.466 398.563L382.751 393.483L386.175 390.378L389.655 390.331ZM26.9031 404.276L27.7507 406.18L28.0593 407.54L29.032 411.507L29.4675 415.427L29.1843 417.579L27.8601 413.956L26.9656 413.126L26.3503 409.415L26.2019 404.696L26.9031 404.276ZM816.263 410.885L817.456 411.409L818.901 413.319L819.696 418.817L819.569 422.466L818.944 428.419L817.835 427.553L816.307 422.108L814.946 412.28L816.263 410.885ZM34.4773 423.489L36.1238 428.919L37.6218 433.196L38.9265 433.981L38.8503 429.561L39.7312 427.77L38.7019 423.79L39.8327 423.626L41.0847 426.956L42.7195 432.128L43.407 431.94L45.2761 435.911L46.1628 440.147L46.8874 441.35L46.5593 443.993L48.028 446.641L47.2898 447.938L48.3952 450.344L48.9441 454.602L47.0749 454.741L46.2546 451.286L44.9577 449.177L44.2077 447.282L43.3601 447.257L42.2585 445.606L42.3933 443.655L41.2702 442.667L38.864 443.923L38.573 441.835L39.0534 440.192L37.8601 435.964L36.6394 433.862L35.4441 430.36L34.0378 428.821L33.5866 424.557L34.4773 423.489ZM52.1765 461.106L54.5593 465.173L55.9109 468.118L56.0515 469.993H54.7644L52.5281 466.253L50.7546 463.532L51.4656 461.128L52.1765 461.106ZM469.085 474.19L470.803 480.106L469.782 485.827L467.177 484.762L465.352 480.192L466.081 477.409L469.085 474.19ZM610.204 478.208L608.038 482.753L608.844 483.729L609.192 484.149L605.188 489.51L602.481 490.007L600.397 488.081L602.634 486.587L602.966 486.362L603.093 484.448L606.604 482.589L610.204 478.208ZM469.833 487.042L473.721 491.512L474.194 500.891L471.634 500.85L469.669 503.526L467.352 501.981L466.132 493.553L464.421 489.706L467.427 489.63L469.833 487.042ZM507.294 500.878L506.362 506.757L507.587 508.675L507.081 512.469L502.362 510.901L499.403 510.804L491.057 508.96L491.266 505.259L497.819 504.514L503.274 502.481L507.294 500.878ZM569.745 501.313L569.673 503.516L562.235 507.188L561.981 506.085L555.13 507.315L555.344 504.134L558.866 505.243L562.874 503.239L566.919 502.104L567.13 503.296L569.745 501.313ZM57.0964 526.096L59.3269 528.258L60.0535 529.448L59.0632 532.889L55.9167 529.352L55.3718 528.034L56.7156 528.118L57.0964 526.096ZM20.8855 538.327C42.5023 605.239 80.8904 665.503 132.393 713.378L20.8855 538.327Z" fill="white"/>
</g>
<defs>
<clipPath id="clip0_2926_45843">
<rect width="824.736" height="824.736" fill="white"/>
</clipPath>
</defs>
</svg>
